solid OpenSCAD_Model
  facet normal -0.703395 0 0.710799
    outer loop
      vertex 70.9721 95 2.5
      vertex 88.7 0 20.0432
      vertex 88.7 95 20.0432
    endloop
  endfacet
  facet normal -0.703395 0 0.710799
    outer loop
      vertex 88.7 0 20.0432
      vertex 70.9721 95 2.5
      vertex 70.9721 0 2.5
    endloop
  endfacet
  facet normal 0 1 -0
    outer loop
      vertex 46 0 2.5
      vertex 38 0 5.5
      vertex 46 0 5.5
    endloop
  endfacet
  facet normal 0 1 0
    outer loop
      vertex 38 0 5.5
      vertex 46 0 2.5
      vertex 38 0 2.5
    endloop
  endfacet
  facet normal 0 -1 0
    outer loop
      vertex 19 0 0
      vertex 38 0 2.5
      vertex 19 0 2.5
    endloop
  endfacet
  facet normal 0 -1 -0
    outer loop
      vertex 38 0 2.5
      vertex 19 0 0
      vertex 38 0 0
    endloop
  endfacet
  facet normal 0 -1 0
    outer loop
      vertex 46 0 2.5
      vertex 46 0 0
      vertex 70.9721 0 2.5
    endloop
  endfacet
  facet normal 0 -1 0
    outer loop
      vertex 88.7 0 20.0432
      vertex 91.2 0 42.5
      vertex 88.7 0 42.5
    endloop
  endfacet
  facet normal 0 -1 0
    outer loop
      vertex 88.7 0 20.0432
      vertex 91.2 0 19
      vertex 91.2 0 42.5
    endloop
  endfacet
  facet normal 0 -1 0
    outer loop
      vertex 70.9721 0 2.5
      vertex 91.2 0 19
      vertex 88.7 0 20.0432
    endloop
  endfacet
  facet normal 0 -1 0
    outer loop
      vertex 70.9721 0 2.5
      vertex 72 0 0
      vertex 91.2 0 19
    endloop
  endfacet
  facet normal 0 -1 0
    outer loop
      vertex 72 0 0
      vertex 70.9721 0 2.5
      vertex 46 0 0
    endloop
  endfacet
  facet normal 0 1 -0
    outer loop
      vertex 19 0 2.5
      vertex 11 0 9.5
      vertex 19 0 9.5
    endloop
  endfacet
  facet normal 0 1 0
    outer loop
      vertex 11 0 9.5
      vertex 19 0 2.5
      vertex 11 0 2.5
    endloop
  endfacet
  facet normal 0 -1 0
    outer loop
      vertex 0 0 9
      vertex 2.5 0 2.5
      vertex 2.5 0 9
    endloop
  endfacet
  facet normal 0 -1 0
    outer loop
      vertex 0 0 0
      vertex 2.5 0 2.5
      vertex 0 0 9
    endloop
  endfacet
  facet normal 0 -1 0
    outer loop
      vertex 11 0 0
      vertex 2.5 0 2.5
      vertex 0 0 0
    endloop
  endfacet
  facet normal 0 -1 0
    outer loop
      vertex 2.5 0 2.5
      vertex 11 0 0
      vertex 11 0 2.5
    endloop
  endfacet
  facet normal 0 1 0
    outer loop
      vertex 91.2 95 42.5
      vertex 88.7 95 20.0432
      vertex 88.7 95 42.5
    endloop
  endfacet
  facet normal 0 1 -0
    outer loop
      vertex 91.2 95 19
      vertex 88.7 95 20.0432
      vertex 91.2 95 42.5
    endloop
  endfacet
  facet normal 0 1 0
    outer loop
      vertex 91.2 95 19
      vertex 70.9721 95 2.5
      vertex 88.7 95 20.0432
    endloop
  endfacet
  facet normal 0 1 0
    outer loop
      vertex 70.9721 95 2.5
      vertex 72 95 0
      vertex 2.5 95 2.5
    endloop
  endfacet
  facet normal 0 1 -0
    outer loop
      vertex 72 95 0
      vertex 70.9721 95 2.5
      vertex 91.2 95 19
    endloop
  endfacet
  facet normal 0 1 -0
    outer loop
      vertex 2.5 95 2.5
      vertex 0 95 9
      vertex 2.5 95 9
    endloop
  endfacet
  facet normal 0 1 0
    outer loop
      vertex 2.5 95 2.5
      vertex 0 95 0
      vertex 0 95 9
    endloop
  endfacet
  facet normal 0 1 0
    outer loop
      vertex 0 95 0
      vertex 2.5 95 2.5
      vertex 72 95 0
    endloop
  endfacet
  facet normal 0.703395 0 -0.710799
    outer loop
      vertex 72 0 0
      vertex 91.2 95 19
      vertex 91.2 0 19
    endloop
  endfacet
  facet normal 0.703395 0 -0.710799
    outer loop
      vertex 91.2 95 19
      vertex 72 0 0
      vertex 72 95 0
    endloop
  endfacet
  facet normal 1 0 0
    outer loop
      vertex 0 74.5546 11
      vertex 0 74.5 11
      vertex 0 74.5182 10.5143
    endloop
  endfacet
  facet normal 1 0 0
    outer loop
      vertex 0 87.5 11
      vertex 0 87.4818 10.5143
      vertex 0 87.5 2.5
    endloop
  endfacet
  facet normal 1 0 -0
    outer loop
      vertex 0 87.4818 10.5143
      vertex 0 87.5 11
      vertex 0 87.4454 11
    endloop
  endfacet
  facet normal 1 -0 0
    outer loop
      vertex 0 87.0507 8.62528
      vertex 0 87.5 2.5
      vertex 0 87.4818 10.5143
    endloop
  endfacet
  facet normal 1 -0 0
    outer loop
      vertex 0 86.0819 6.94732
      vertex 0 87.5 2.5
      vertex 0 87.0507 8.62528
    endloop
  endfacet
  facet normal 1 -0 0
    outer loop
      vertex 0 84.6616 5.62945
      vertex 0 87.5 2.5
      vertex 0 86.0819 6.94732
    endloop
  endfacet
  facet normal 1 -0 0
    outer loop
      vertex 0 82.9159 4.78878
      vertex 0 87.5 2.5
      vertex 0 84.6616 5.62945
    endloop
  endfacet
  facet normal 1 -0 0
    outer loop
      vertex 0 81 4.5
      vertex 0 87.5 2.5
      vertex 0 82.9159 4.78878
    endloop
  endfacet
  facet normal 1 0 0
    outer loop
      vertex 0 74.5 2.5
      vertex 0 81 4.5
      vertex 0 79.0841 4.78878
    endloop
  endfacet
  facet normal 1 0 0
    outer loop
      vertex 0 81 4.5
      vertex 0 74.5 2.5
      vertex 0 87.5 2.5
    endloop
  endfacet
  facet normal 1 0 0
    outer loop
      vertex 0 77.3384 5.62945
      vertex 0 74.5 2.5
      vertex 0 79.0841 4.78878
    endloop
  endfacet
  facet normal 1 0 0
    outer loop
      vertex 0 75.9181 6.94732
      vertex 0 74.5 2.5
      vertex 0 77.3384 5.62945
    endloop
  endfacet
  facet normal 1 0 0
    outer loop
      vertex 0 74.9493 8.62528
      vertex 0 74.5 2.5
      vertex 0 75.9181 6.94732
    endloop
  endfacet
  facet normal 1 0 0
    outer loop
      vertex 0 74.5182 10.5143
      vertex 0 74.5 2.5
      vertex 0 74.9493 8.62528
    endloop
  endfacet
  facet normal 1 0 0
    outer loop
      vertex 0 74.5 2.5
      vertex 0 74.5182 10.5143
      vertex 0 74.5 11
    endloop
  endfacet
  facet normal -1 0 0
    outer loop
      vertex 0 74.5 0
      vertex 0 7 2.5
      vertex 0 74.5 2.5
    endloop
  endfacet
  facet normal -1 0 0
    outer loop
      vertex 0 7 2.5
      vertex 0 4.92658 5.03647
      vertex 0 7 9
    endloop
  endfacet
  facet normal -1 0 0
    outer loop
      vertex 0 7 2.5
      vertex 0 3.5 4
      vertex 0 4.92658 5.03647
    endloop
  endfacet
  facet normal -1 -0 0
    outer loop
      vertex 0 3.5 4
      vertex 0 0 0
      vertex 0 2.07341 5.03647
    endloop
  endfacet
  facet normal -1 -0 0
    outer loop
      vertex 0 7 2.5
      vertex 0 0 0
      vertex 0 3.5 4
    endloop
  endfacet
  facet normal -1 0 0
    outer loop
      vertex 0 0 0
      vertex 0 7 2.5
      vertex 0 74.5 0
    endloop
  endfacet
  facet normal -1 0 0
    outer loop
      vertex 0 4.38168 6.71352
      vertex 0 7 9
      vertex 0 4.92658 5.03647
    endloop
  endfacet
  facet normal -1 0 0
    outer loop
      vertex 0 2.61832 6.71352
      vertex 0 7 9
      vertex 0 4.38168 6.71352
    endloop
  endfacet
  facet normal -1 0 0
    outer loop
      vertex 0 0 9
      vertex 0 2.07341 5.03647
      vertex 0 0 0
    endloop
  endfacet
  facet normal -1 0 0
    outer loop
      vertex 0 2.61832 6.71352
      vertex 0 0 9
      vertex 0 7 9
    endloop
  endfacet
  facet normal -1 0 0
    outer loop
      vertex 0 2.07341 5.03647
      vertex 0 0 9
      vertex 0 2.61832 6.71352
    endloop
  endfacet
  facet normal -1 0 0
    outer loop
      vertex 0 95 0
      vertex 0 92.9266 5.03647
      vertex 0 95 9
    endloop
  endfacet
  facet normal -1 0 0
    outer loop
      vertex 0 95 0
      vertex 0 91.5 4
      vertex 0 92.9266 5.03647
    endloop
  endfacet
  facet normal -1 0 0
    outer loop
      vertex 0 87.5 0
      vertex 0 91.5 4
      vertex 0 95 0
    endloop
  endfacet
  facet normal -1 -0 0
    outer loop
      vertex 0 91.5 4
      vertex 0 88 2.5
      vertex 0 90.0734 5.03647
    endloop
  endfacet
  facet normal -1 0 0
    outer loop
      vertex 0 91.5 4
      vertex 0 87.5 0
      vertex 0 88 2.5
    endloop
  endfacet
  facet normal -1 -0 0
    outer loop
      vertex 0 88 2.5
      vertex 0 87.5 0
      vertex 0 87.5 2.5
    endloop
  endfacet
  facet normal -1 0 0
    outer loop
      vertex 0 92.3817 6.71352
      vertex 0 95 9
      vertex 0 92.9266 5.03647
    endloop
  endfacet
  facet normal -1 0 0
    outer loop
      vertex 0 90.6183 6.71352
      vertex 0 95 9
      vertex 0 92.3817 6.71352
    endloop
  endfacet
  facet normal -1 0 0
    outer loop
      vertex 0 88 9
      vertex 0 90.0734 5.03647
      vertex 0 88 2.5
    endloop
  endfacet
  facet normal -1 0 0
    outer loop
      vertex 0 90.6183 6.71352
      vertex 0 88 9
      vertex 0 95 9
    endloop
  endfacet
  facet normal -1 0 0
    outer loop
      vertex 0 90.0734 5.03647
      vertex 0 88 9
      vertex 0 90.6183 6.71352
    endloop
  endfacet
  facet normal 0 0 1
    outer loop
      vertex 0 87.5 2.5
      vertex 2.5 88 2.5
      vertex 0 88 2.5
    endloop
  endfacet
  facet normal 0 0 1
    outer loop
      vertex 0 74.5 2.5
      vertex 2.5 88 2.5
      vertex 0 87.5 2.5
    endloop
  endfacet
  facet normal 0 0 1
    outer loop
      vertex 2.5 88 2.5
      vertex 0 74.5 2.5
      vertex 2.5 7 2.5
    endloop
  endfacet
  facet normal 0 0 1
    outer loop
      vertex 2.5 7 2.5
      vertex 0 74.5 2.5
      vertex 0 7 2.5
    endloop
  endfacet
  facet normal 0 0 1
    outer loop
      vertex 70.9721 95 2.5
      vertex 46 0 2.5
      vertex 70.9721 0 2.5
    endloop
  endfacet
  facet normal 0 0 1
    outer loop
      vertex 70.9721 95 2.5
      vertex 38 0 2.5
      vertex 46 0 2.5
    endloop
  endfacet
  facet normal -0 0 1
    outer loop
      vertex 2.5 88 2.5
      vertex 38 0 2.5
      vertex 70.9721 95 2.5
    endloop
  endfacet
  facet normal -0 0 1
    outer loop
      vertex 2.5 7 2.5
      vertex 38 0 2.5
      vertex 2.5 88 2.5
    endloop
  endfacet
  facet normal 0 0 1
    outer loop
      vertex 2.5 88 2.5
      vertex 70.9721 95 2.5
      vertex 2.5 95 2.5
    endloop
  endfacet
  facet normal 0 0 1
    outer loop
      vertex 38 0 2.5
      vertex 2.5 7 2.5
      vertex 19 0 2.5
    endloop
  endfacet
  facet normal 0 0 1
    outer loop
      vertex 19 0 2.5
      vertex 2.5 7 2.5
      vertex 11 0 2.5
    endloop
  endfacet
  facet normal 0 0 1
    outer loop
      vertex 11 0 2.5
      vertex 2.5 7 2.5
      vertex 2.5 0 2.5
    endloop
  endfacet
  facet normal 0 0 -1
    outer loop
      vertex 19 -2.5 0
      vertex 11 -2.5 0
      vertex 19 0 0
    endloop
  endfacet
  facet normal 0 0 -1
    outer loop
      vertex 46 -2.5 0
      vertex 38 -2.5 0
      vertex 46 0 0
    endloop
  endfacet
  facet normal 0 0 -1
    outer loop
      vertex 46 0 0
      vertex 72 95 0
      vertex 72 0 0
    endloop
  endfacet
  facet normal 0 0 -1
    outer loop
      vertex 38 0 0
      vertex 46 0 0
      vertex 38 -2.5 0
    endloop
  endfacet
  facet normal 0 0 -1
    outer loop
      vertex 0 74.5 0
      vertex 46 0 0
      vertex 38 0 0
    endloop
  endfacet
  facet normal 0 0 -1
    outer loop
      vertex 0 74.5 0
      vertex 38 0 0
      vertex 19 0 0
    endloop
  endfacet
  facet normal 0 0 -1
    outer loop
      vertex 11 0 0
      vertex 19 0 0
      vertex 11 -2.5 0
    endloop
  endfacet
  facet normal 0 0 -1
    outer loop
      vertex 0 74.5 0
      vertex 19 0 0
      vertex 11 0 0
    endloop
  endfacet
  facet normal 0 0 -1
    outer loop
      vertex 0 74.5 0
      vertex 11 0 0
      vertex 0 0 0
    endloop
  endfacet
  facet normal 0 0 -1
    outer loop
      vertex 46 0 0
      vertex 0 74.5 0
      vertex 72 95 0
    endloop
  endfacet
  facet normal 0 0 -1
    outer loop
      vertex 0 87.5 0
      vertex 72 95 0
      vertex 0 74.5 0
    endloop
  endfacet
  facet normal -0 0 -1
    outer loop
      vertex 72 95 0
      vertex 0 87.5 0
      vertex 0 95 0
    endloop
  endfacet
  facet normal 0 0 -1
    outer loop
      vertex -2.5 74.5 0
      vertex 0 87.5 0
      vertex 0 74.5 0
    endloop
  endfacet
  facet normal -0 0 -1
    outer loop
      vertex 0 87.5 0
      vertex -2.5 74.5 0
      vertex -2.5 87.5 0
    endloop
  endfacet
  facet normal -1 0 0
    outer loop
      vertex 88.7 95 20.0432
      vertex 88.7 61.4266 25.5365
      vertex 88.7 95 42.5
    endloop
  endfacet
  facet normal -1 0 0
    outer loop
      vertex 88.7 95 20.0432
      vertex 88.7 60 24.5
      vertex 88.7 61.4266 25.5365
    endloop
  endfacet
  facet normal -1 0 0
    outer loop
      vertex 88.7 60 24.5
      vertex 88.7 36.4266 25.5365
      vertex 88.7 58.5734 25.5365
    endloop
  endfacet
  facet normal -1 0 0
    outer loop
      vertex 88.7 35 24.5
      vertex 88.7 60 24.5
      vertex 88.7 95 20.0432
    endloop
  endfacet
  facet normal -1 0 0
    outer loop
      vertex 88.7 60 24.5
      vertex 88.7 35 24.5
      vertex 88.7 36.4266 25.5365
    endloop
  endfacet
  facet normal -1 -0 0
    outer loop
      vertex 88.7 35 24.5
      vertex 88.7 0 20.0432
      vertex 88.7 33.5734 25.5365
    endloop
  endfacet
  facet normal -1 0 0
    outer loop
      vertex 88.7 0 20.0432
      vertex 88.7 35 24.5
      vertex 88.7 95 20.0432
    endloop
  endfacet
  facet normal -1 0 0
    outer loop
      vertex 88.7 60.8817 27.2135
      vertex 88.7 95 42.5
      vertex 88.7 61.4266 25.5365
    endloop
  endfacet
  facet normal -1 0 0
    outer loop
      vertex 88.7 59.1183 27.2135
      vertex 88.7 95 42.5
      vertex 88.7 60.8817 27.2135
    endloop
  endfacet
  facet normal -1 0 0
    outer loop
      vertex 88.7 36.4266 25.5365
      vertex 88.7 59.1183 27.2135
      vertex 88.7 58.5734 25.5365
    endloop
  endfacet
  facet normal -1 0 0
    outer loop
      vertex 88.7 35.8817 27.2135
      vertex 88.7 59.1183 27.2135
      vertex 88.7 36.4266 25.5365
    endloop
  endfacet
  facet normal -1 0 0
    outer loop
      vertex 88.7 59.1183 27.2135
      vertex 88.7 35.8817 27.2135
      vertex 88.7 95 42.5
    endloop
  endfacet
  facet normal -1 0 0
    outer loop
      vertex 88.7 0 42.5
      vertex 88.7 35.8817 27.2135
      vertex 88.7 34.1183 27.2135
    endloop
  endfacet
  facet normal -1 0 0
    outer loop
      vertex 88.7 0 42.5
      vertex 88.7 33.5734 25.5365
      vertex 88.7 0 20.0432
    endloop
  endfacet
  facet normal -1 0 0
    outer loop
      vertex 88.7 33.5734 25.5365
      vertex 88.7 0 42.5
      vertex 88.7 34.1183 27.2135
    endloop
  endfacet
  facet normal -1 0 0
    outer loop
      vertex 88.7 35.8817 27.2135
      vertex 88.7 0 42.5
      vertex 88.7 95 42.5
    endloop
  endfacet
  facet normal -0 0 1
    outer loop
      vertex 88.7 95 42.5
      vertex 91.2 0 42.5
      vertex 91.2 95 42.5
    endloop
  endfacet
  facet normal 0 0 1
    outer loop
      vertex 91.2 0 42.5
      vertex 88.7 95 42.5
      vertex 88.7 0 42.5
    endloop
  endfacet
  facet normal 1 0 0
    outer loop
      vertex 91.2 95 42.5
      vertex 91.2 61.4266 25.5365
      vertex 91.2 95 19
    endloop
  endfacet
  facet normal 1 0 0
    outer loop
      vertex 91.2 95 42.5
      vertex 91.2 60.8817 27.2135
      vertex 91.2 61.4266 25.5365
    endloop
  endfacet
  facet normal 1 0 0
    outer loop
      vertex 91.2 95 42.5
      vertex 91.2 59.1183 27.2135
      vertex 91.2 60.8817 27.2135
    endloop
  endfacet
  facet normal 1 0 0
    outer loop
      vertex 91.2 59.1183 27.2135
      vertex 91.2 36.4266 25.5365
      vertex 91.2 58.5734 25.5365
    endloop
  endfacet
  facet normal 1 0 0
    outer loop
      vertex 91.2 35.8817 27.2135
      vertex 91.2 59.1183 27.2135
      vertex 91.2 95 42.5
    endloop
  endfacet
  facet normal 1 0 0
    outer loop
      vertex 91.2 59.1183 27.2135
      vertex 91.2 35.8817 27.2135
      vertex 91.2 36.4266 25.5365
    endloop
  endfacet
  facet normal 1 -0 0
    outer loop
      vertex 91.2 0 42.5
      vertex 91.2 35.8817 27.2135
      vertex 91.2 95 42.5
    endloop
  endfacet
  facet normal 1 0 0
    outer loop
      vertex 91.2 34.1183 27.2135
      vertex 91.2 0 42.5
      vertex 91.2 33.5734 25.5365
    endloop
  endfacet
  facet normal 1 0 0
    outer loop
      vertex 91.2 35.8817 27.2135
      vertex 91.2 0 42.5
      vertex 91.2 34.1183 27.2135
    endloop
  endfacet
  facet normal 1 -0 0
    outer loop
      vertex 91.2 60 24.5
      vertex 91.2 95 19
      vertex 91.2 61.4266 25.5365
    endloop
  endfacet
  facet normal 1 -0 0
    outer loop
      vertex 91.2 36.4266 25.5365
      vertex 91.2 60 24.5
      vertex 91.2 58.5734 25.5365
    endloop
  endfacet
  facet normal 1 0 0
    outer loop
      vertex 91.2 35 24.5
      vertex 91.2 60 24.5
      vertex 91.2 36.4266 25.5365
    endloop
  endfacet
  facet normal 1 0 0
    outer loop
      vertex 91.2 60 24.5
      vertex 91.2 35 24.5
      vertex 91.2 95 19
    endloop
  endfacet
  facet normal 1 0 0
    outer loop
      vertex 91.2 0 19
      vertex 91.2 33.5734 25.5365
      vertex 91.2 0 42.5
    endloop
  endfacet
  facet normal 1 0 0
    outer loop
      vertex 91.2 35 24.5
      vertex 91.2 0 19
      vertex 91.2 95 19
    endloop
  endfacet
  facet normal 1 0 0
    outer loop
      vertex 91.2 33.5734 25.5365
      vertex 91.2 0 19
      vertex 91.2 35 24.5
    endloop
  endfacet
  facet normal 0 -0.587786 0.809017
    outer loop
      vertex 88.7 36.4266 25.5365
      vertex 91.2 35 24.5
      vertex 91.2 36.4266 25.5365
    endloop
  endfacet
  facet normal 0 -0.587786 0.809017
    outer loop
      vertex 91.2 35 24.5
      vertex 88.7 36.4266 25.5365
      vertex 88.7 35 24.5
    endloop
  endfacet
  facet normal 0 0 -1
    outer loop
      vertex 88.7 34.1183 27.2135
      vertex 91.2 35.8817 27.2135
      vertex 91.2 34.1183 27.2135
    endloop
  endfacet
  facet normal -0 0 -1
    outer loop
      vertex 91.2 35.8817 27.2135
      vertex 88.7 34.1183 27.2135
      vertex 88.7 35.8817 27.2135
    endloop
  endfacet
  facet normal 0 -0.951056 -0.309017
    outer loop
      vertex 88.7 36.4266 25.5365
      vertex 91.2 35.8817 27.2135
      vertex 88.7 35.8817 27.2135
    endloop
  endfacet
  facet normal 0 -0.951056 -0.309017
    outer loop
      vertex 91.2 35.8817 27.2135
      vertex 88.7 36.4266 25.5365
      vertex 91.2 36.4266 25.5365
    endloop
  endfacet
  facet normal 0 0.951056 -0.309017
    outer loop
      vertex 91.2 33.5734 25.5365
      vertex 88.7 34.1183 27.2135
      vertex 91.2 34.1183 27.2135
    endloop
  endfacet
  facet normal 0 0.951056 -0.309017
    outer loop
      vertex 88.7 34.1183 27.2135
      vertex 91.2 33.5734 25.5365
      vertex 88.7 33.5734 25.5365
    endloop
  endfacet
  facet normal -0 0.587785 0.809017
    outer loop
      vertex 88.7 35 24.5
      vertex 91.2 33.5734 25.5365
      vertex 91.2 35 24.5
    endloop
  endfacet
  facet normal 0 0.587785 0.809017
    outer loop
      vertex 91.2 33.5734 25.5365
      vertex 88.7 35 24.5
      vertex 88.7 33.5734 25.5365
    endloop
  endfacet
  facet normal 0 -0.587786 0.809017
    outer loop
      vertex 88.7 61.4266 25.5365
      vertex 91.2 60 24.5
      vertex 91.2 61.4266 25.5365
    endloop
  endfacet
  facet normal 0 -0.587786 0.809017
    outer loop
      vertex 91.2 60 24.5
      vertex 88.7 61.4266 25.5365
      vertex 88.7 60 24.5
    endloop
  endfacet
  facet normal 0 0 -1
    outer loop
      vertex 88.7 59.1183 27.2135
      vertex 91.2 60.8817 27.2135
      vertex 91.2 59.1183 27.2135
    endloop
  endfacet
  facet normal -0 0 -1
    outer loop
      vertex 91.2 60.8817 27.2135
      vertex 88.7 59.1183 27.2135
      vertex 88.7 60.8817 27.2135
    endloop
  endfacet
  facet normal 0 -0.951056 -0.309017
    outer loop
      vertex 88.7 61.4266 25.5365
      vertex 91.2 60.8817 27.2135
      vertex 88.7 60.8817 27.2135
    endloop
  endfacet
  facet normal 0 -0.951056 -0.309017
    outer loop
      vertex 91.2 60.8817 27.2135
      vertex 88.7 61.4266 25.5365
      vertex 91.2 61.4266 25.5365
    endloop
  endfacet
  facet normal 0 0.951056 -0.309017
    outer loop
      vertex 91.2 58.5734 25.5365
      vertex 88.7 59.1183 27.2135
      vertex 91.2 59.1183 27.2135
    endloop
  endfacet
  facet normal 0 0.951056 -0.309017
    outer loop
      vertex 88.7 59.1183 27.2135
      vertex 91.2 58.5734 25.5365
      vertex 88.7 58.5734 25.5365
    endloop
  endfacet
  facet normal -0 0.587785 0.809017
    outer loop
      vertex 88.7 60 24.5
      vertex 91.2 58.5734 25.5365
      vertex 91.2 60 24.5
    endloop
  endfacet
  facet normal 0 0.587785 0.809017
    outer loop
      vertex 91.2 58.5734 25.5365
      vertex 88.7 60 24.5
      vertex 88.7 58.5734 25.5365
    endloop
  endfacet
  facet normal -0 0 1
    outer loop
      vertex 0 7 9
      vertex 2.5 0 9
      vertex 2.5 7 9
    endloop
  endfacet
  facet normal 0 0 1
    outer loop
      vertex 2.5 0 9
      vertex 0 7 9
      vertex 0 0 9
    endloop
  endfacet
  facet normal 1 0 0
    outer loop
      vertex 2.5 7 9
      vertex 2.5 4.92658 5.03647
      vertex 2.5 7 2.5
    endloop
  endfacet
  facet normal 1 0 0
    outer loop
      vertex 2.5 7 9
      vertex 2.5 2.07341 5.03647
      vertex 2.5 4.92658 5.03647
    endloop
  endfacet
  facet normal 1 0 -0
    outer loop
      vertex 2.5 2.07341 5.03647
      vertex 2.5 7 9
      vertex 2.5 0 9
    endloop
  endfacet
  facet normal 1 -0 0
    outer loop
      vertex 2.5 3.5 4
      vertex 2.5 7 2.5
      vertex 2.5 4.92658 5.03647
    endloop
  endfacet
  facet normal 1 0 0
    outer loop
      vertex 2.5 3.5 4
      vertex 2.5 0 2.5
      vertex 2.5 7 2.5
    endloop
  endfacet
  facet normal 1 0 0
    outer loop
      vertex 2.5 2.07341 5.03647
      vertex 2.5 0 2.5
      vertex 2.5 3.5 4
    endloop
  endfacet
  facet normal 1 0 0
    outer loop
      vertex 2.5 0 2.5
      vertex 2.5 2.07341 5.03647
      vertex 2.5 0 9
    endloop
  endfacet
  facet normal 0 1 -0
    outer loop
      vertex 2.5 7 2.5
      vertex 0 7 9
      vertex 2.5 7 9
    endloop
  endfacet
  facet normal 0 1 0
    outer loop
      vertex 0 7 9
      vertex 2.5 7 2.5
      vertex 0 7 2.5
    endloop
  endfacet
  facet normal 0 -0.587785 0.809017
    outer loop
      vertex 0 4.92658 5.03647
      vertex 2.5 3.5 4
      vertex 2.5 4.92658 5.03647
    endloop
  endfacet
  facet normal 0 -0.587785 0.809017
    outer loop
      vertex 2.5 3.5 4
      vertex 0 4.92658 5.03647
      vertex 0 3.5 4
    endloop
  endfacet
  facet normal 0 0 -1
    outer loop
      vertex 0 2.61832 6.71352
      vertex 2.5 4.38168 6.71352
      vertex 2.5 2.61832 6.71352
    endloop
  endfacet
  facet normal -0 0 -1
    outer loop
      vertex 2.5 4.38168 6.71352
      vertex 0 2.61832 6.71352
      vertex 0 4.38168 6.71352
    endloop
  endfacet
  facet normal 0 -0.951057 -0.309017
    outer loop
      vertex 0 4.92658 5.03647
      vertex 2.5 4.38168 6.71352
      vertex 0 4.38168 6.71352
    endloop
  endfacet
  facet normal 0 -0.951057 -0.309017
    outer loop
      vertex 2.5 4.38168 6.71352
      vertex 0 4.92658 5.03647
      vertex 2.5 4.92658 5.03647
    endloop
  endfacet
  facet normal 0 0.951057 -0.309017
    outer loop
      vertex 2.5 2.07341 5.03647
      vertex 0 2.61832 6.71352
      vertex 2.5 2.61832 6.71352
    endloop
  endfacet
  facet normal 0 0.951057 -0.309017
    outer loop
      vertex 0 2.61832 6.71352
      vertex 2.5 2.07341 5.03647
      vertex 0 2.07341 5.03647
    endloop
  endfacet
  facet normal -1 0 -5.68662e-07
    outer loop
      vertex 2.5 4.92658 5.03647
      vertex 2.5 2.61832 6.71352
      vertex 2.5 4.38168 6.71352
    endloop
  endfacet
  facet normal -1 0 -5.68662e-07
    outer loop
      vertex 2.5 2.61832 6.71352
      vertex 2.5 4.92658 5.03647
      vertex 2.5 2.07341 5.03647
    endloop
  endfacet
  facet normal -0 0.587785 0.809017
    outer loop
      vertex 0 3.5 4
      vertex 2.5 2.07341 5.03647
      vertex 2.5 3.5 4
    endloop
  endfacet
  facet normal 0 0.587785 0.809017
    outer loop
      vertex 2.5 2.07341 5.03647
      vertex 0 3.5 4
      vertex 0 2.07341 5.03647
    endloop
  endfacet
  facet normal -0 0 1
    outer loop
      vertex 0 95 9
      vertex 2.5 88 9
      vertex 2.5 95 9
    endloop
  endfacet
  facet normal 0 0 1
    outer loop
      vertex 2.5 88 9
      vertex 0 95 9
      vertex 0 88 9
    endloop
  endfacet
  facet normal 1 0 0
    outer loop
      vertex 2.5 95 9
      vertex 2.5 92.9266 5.03647
      vertex 2.5 95 2.5
    endloop
  endfacet
  facet normal 1 0 0
    outer loop
      vertex 2.5 95 9
      vertex 2.5 90.0734 5.03647
      vertex 2.5 92.9266 5.03647
    endloop
  endfacet
  facet normal 1 0 -0
    outer loop
      vertex 2.5 90.0734 5.03647
      vertex 2.5 95 9
      vertex 2.5 88 9
    endloop
  endfacet
  facet normal 1 -0 0
    outer loop
      vertex 2.5 91.5 4
      vertex 2.5 95 2.5
      vertex 2.5 92.9266 5.03647
    endloop
  endfacet
  facet normal 1 0 0
    outer loop
      vertex 2.5 91.5 4
      vertex 2.5 88 2.5
      vertex 2.5 95 2.5
    endloop
  endfacet
  facet normal 1 0 0
    outer loop
      vertex 2.5 90.0734 5.03647
      vertex 2.5 88 2.5
      vertex 2.5 91.5 4
    endloop
  endfacet
  facet normal 1 0 0
    outer loop
      vertex 2.5 88 2.5
      vertex 2.5 90.0734 5.03647
      vertex 2.5 88 9
    endloop
  endfacet
  facet normal 0 -1 0
    outer loop
      vertex 0 88 2.5
      vertex 2.5 88 9
      vertex 0 88 9
    endloop
  endfacet
  facet normal 0 -1 -0
    outer loop
      vertex 2.5 88 9
      vertex 0 88 2.5
      vertex 2.5 88 2.5
    endloop
  endfacet
  facet normal 0 -0.587786 0.809017
    outer loop
      vertex 0 92.9266 5.03647
      vertex 2.5 91.5 4
      vertex 2.5 92.9266 5.03647
    endloop
  endfacet
  facet normal 0 -0.587786 0.809017
    outer loop
      vertex 2.5 91.5 4
      vertex 0 92.9266 5.03647
      vertex 0 91.5 4
    endloop
  endfacet
  facet normal 0 0 -1
    outer loop
      vertex 0 90.6183 6.71352
      vertex 2.5 92.3817 6.71352
      vertex 2.5 90.6183 6.71352
    endloop
  endfacet
  facet normal -0 0 -1
    outer loop
      vertex 2.5 92.3817 6.71352
      vertex 0 90.6183 6.71352
      vertex 0 92.3817 6.71352
    endloop
  endfacet
  facet normal 0 -0.951057 -0.309017
    outer loop
      vertex 0 92.9266 5.03647
      vertex 2.5 92.3817 6.71352
      vertex 0 92.3817 6.71352
    endloop
  endfacet
  facet normal 0 -0.951057 -0.309017
    outer loop
      vertex 2.5 92.3817 6.71352
      vertex 0 92.9266 5.03647
      vertex 2.5 92.9266 5.03647
    endloop
  endfacet
  facet normal 0 0.951057 -0.309017
    outer loop
      vertex 2.5 90.0734 5.03647
      vertex 0 90.6183 6.71352
      vertex 2.5 90.6183 6.71352
    endloop
  endfacet
  facet normal 0 0.951057 -0.309017
    outer loop
      vertex 0 90.6183 6.71352
      vertex 2.5 90.0734 5.03647
      vertex 0 90.0734 5.03647
    endloop
  endfacet
  facet normal -1 0 -5.68662e-07
    outer loop
      vertex 2.5 92.9266 5.03647
      vertex 2.5 90.6183 6.71352
      vertex 2.5 92.3817 6.71352
    endloop
  endfacet
  facet normal -1 0 -5.68662e-07
    outer loop
      vertex 2.5 90.6183 6.71352
      vertex 2.5 92.9266 5.03647
      vertex 2.5 90.0734 5.03647
    endloop
  endfacet
  facet normal -0 0.587786 0.809017
    outer loop
      vertex 0 91.5 4
      vertex 2.5 90.0734 5.03647
      vertex 2.5 91.5 4
    endloop
  endfacet
  facet normal 0 0.587786 0.809017
    outer loop
      vertex 2.5 90.0734 5.03647
      vertex 0 91.5 4
      vertex 0 90.0734 5.03647
    endloop
  endfacet
  facet normal -1 0 0
    outer loop
      vertex -2.5 87.5 0
      vertex -2.5 87.4818 10.5143
      vertex -2.5 87.5 11
    endloop
  endfacet
  facet normal -1 0 0
    outer loop
      vertex -2.5 87.5 0
      vertex -2.5 74.5182 10.5143
      vertex -2.5 87.4818 10.5143
    endloop
  endfacet
  facet normal -1 0 -0
    outer loop
      vertex -2.5 74.5182 10.5143
      vertex -2.5 87.5 0
      vertex -2.5 74.5 0
    endloop
  endfacet
  facet normal -1 -0 0
    outer loop
      vertex -2.5 87.5 11
      vertex -2.5 87.4818 10.5143
      vertex -2.5 87.4454 11
    endloop
  endfacet
  facet normal -1 0 0
    outer loop
      vertex -2.5 74.5182 10.5143
      vertex -2.5 74.5 11
      vertex -2.5 74.5546 11
    endloop
  endfacet
  facet normal -1 0 0
    outer loop
      vertex -2.5 74.5 11
      vertex -2.5 74.5182 10.5143
      vertex -2.5 74.5 0
    endloop
  endfacet
  facet normal -0 0 1
    outer loop
      vertex -2.5 74.5546 11
      vertex 0 74.5 11
      vertex 0 74.5546 11
    endloop
  endfacet
  facet normal 0 0 1
    outer loop
      vertex 0 74.5 11
      vertex -2.5 74.5546 11
      vertex -2.5 74.5 11
    endloop
  endfacet
  facet normal -0 0 1
    outer loop
      vertex -2.5 87.5 11
      vertex 0 87.4454 11
      vertex 0 87.5 11
    endloop
  endfacet
  facet normal 0 0 1
    outer loop
      vertex 0 87.4454 11
      vertex -2.5 87.5 11
      vertex -2.5 87.4454 11
    endloop
  endfacet
  facet normal 0 -1 0
    outer loop
      vertex -2.5 74.5 11
      vertex 0 74.5 2.5
      vertex 0 74.5 11
    endloop
  endfacet
  facet normal 0 -1 0
    outer loop
      vertex -2.5 74.5 0
      vertex 0 74.5 2.5
      vertex -2.5 74.5 11
    endloop
  endfacet
  facet normal 0 -1 -0
    outer loop
      vertex 0 74.5 2.5
      vertex -2.5 74.5 0
      vertex 0 74.5 0
    endloop
  endfacet
  facet normal 0 1 -0
    outer loop
      vertex 0 87.5 2.5
      vertex -2.5 87.5 11
      vertex 0 87.5 11
    endloop
  endfacet
  facet normal 0 1 0
    outer loop
      vertex -2.5 87.5 0
      vertex 0 87.5 2.5
      vertex 0 87.5 0
    endloop
  endfacet
  facet normal 0 1 0
    outer loop
      vertex 0 87.5 2.5
      vertex -2.5 87.5 0
      vertex -2.5 87.5 11
    endloop
  endfacet
  facet normal 0 -0.149042 0.988831
    outer loop
      vertex -2.5 82.9159 4.78878
      vertex 0 81 4.5
      vertex 0 82.9159 4.78878
    endloop
  endfacet
  facet normal 0 -0.149042 0.988831
    outer loop
      vertex 0 81 4.5
      vertex -2.5 82.9159 4.78878
      vertex -2.5 81 4.5
    endloop
  endfacet
  facet normal 1 2.85359e-08 1.89323e-07
    outer loop
      vertex -2.5 79.0841 4.78878
      vertex -2.5 81 4.5
      vertex -2.5 74.5182 10.5143
    endloop
  endfacet
  facet normal 0 -0.997203 -0.074742
    outer loop
      vertex -2.5 87.4818 10.5143
      vertex 0 87.4454 11
      vertex -2.5 87.4454 11
    endloop
  endfacet
  facet normal 0 -0.997203 -0.074742
    outer loop
      vertex 0 87.4454 11
      vertex -2.5 87.4818 10.5143
      vertex 0 87.4818 10.5143
    endloop
  endfacet
  facet normal 1 -3.90162e-07 4.20493e-07
    outer loop
      vertex -2.5 84.6616 5.62945
      vertex -2.5 86.0819 6.94732
      vertex -2.5 87.4818 10.5143
    endloop
  endfacet
  facet normal 0 0.997204 -0.0747264
    outer loop
      vertex 0 74.5182 10.5143
      vertex -2.5 74.5546 11
      vertex 0 74.5546 11
    endloop
  endfacet
  facet normal 0 0.997204 -0.0747264
    outer loop
      vertex -2.5 74.5546 11
      vertex 0 74.5182 10.5143
      vertex -2.5 74.5182 10.5143
    endloop
  endfacet
  facet normal 1 3.90157e-07 4.2049e-07
    outer loop
      vertex -2.5 75.9181 6.94732
      vertex -2.5 77.3384 5.62945
      vertex -2.5 74.5182 10.5143
    endloop
  endfacet
  facet normal 1 -1.44615e-06 8.34938e-07
    outer loop
      vertex -2.5 86.0819 6.94732
      vertex -2.5 87.0507 8.62528
      vertex -2.5 87.4818 10.5143
    endloop
  endfacet
  facet normal 1 -1.30227e-07 2.70419e-07
    outer loop
      vertex -2.5 82.9159 4.78878
      vertex -2.5 84.6616 5.62945
      vertex -2.5 87.4818 10.5143
    endloop
  endfacet
  facet normal 1 1.30227e-07 2.70419e-07
    outer loop
      vertex -2.5 77.3384 5.62945
      vertex -2.5 79.0841 4.78878
      vertex -2.5 74.5182 10.5143
    endloop
  endfacet
  facet normal 0 0.974928 0.222521
    outer loop
      vertex 0 74.9493 8.62528
      vertex -2.5 74.5182 10.5143
      vertex 0 74.5182 10.5143
    endloop
  endfacet
  facet normal 0 0.974928 0.222521
    outer loop
      vertex -2.5 74.5182 10.5143
      vertex 0 74.9493 8.62528
      vertex -2.5 74.9493 8.62528
    endloop
  endfacet
  facet normal -0 0.433883 0.900969
    outer loop
      vertex -2.5 79.0841 4.78878
      vertex 0 77.3384 5.62945
      vertex 0 79.0841 4.78878
    endloop
  endfacet
  facet normal 0 0.433883 0.900969
    outer loop
      vertex 0 77.3384 5.62945
      vertex -2.5 79.0841 4.78878
      vertex -2.5 77.3384 5.62945
    endloop
  endfacet
  facet normal 0 -0.433883 0.900969
    outer loop
      vertex -2.5 84.6616 5.62945
      vertex 0 82.9159 4.78878
      vertex 0 84.6616 5.62945
    endloop
  endfacet
  facet normal 0 -0.433883 0.900969
    outer loop
      vertex 0 82.9159 4.78878
      vertex -2.5 84.6616 5.62945
      vertex -2.5 82.9159 4.78878
    endloop
  endfacet
  facet normal 1 0 1.58569e-07
    outer loop
      vertex -2.5 81 4.5
      vertex -2.5 87.4818 10.5143
      vertex -2.5 74.5182 10.5143
    endloop
  endfacet
  facet normal 1 -2.85359e-08 1.89323e-07
    outer loop
      vertex -2.5 81 4.5
      vertex -2.5 82.9159 4.78878
      vertex -2.5 87.4818 10.5143
    endloop
  endfacet
  facet normal 0 0.866026 0.499999
    outer loop
      vertex 0 75.9181 6.94732
      vertex -2.5 74.9493 8.62528
      vertex 0 74.9493 8.62528
    endloop
  endfacet
  facet normal 0 0.866026 0.499999
    outer loop
      vertex -2.5 74.9493 8.62528
      vertex 0 75.9181 6.94732
      vertex -2.5 75.9181 6.94732
    endloop
  endfacet
  facet normal 1 1.44616e-06 8.34942e-07
    outer loop
      vertex -2.5 74.9493 8.62528
      vertex -2.5 75.9181 6.94732
      vertex -2.5 74.5182 10.5143
    endloop
  endfacet
  facet normal -0 0.149042 0.988831
    outer loop
      vertex -2.5 81 4.5
      vertex 0 79.0841 4.78878
      vertex 0 81 4.5
    endloop
  endfacet
  facet normal 0 0.149042 0.988831
    outer loop
      vertex 0 79.0841 4.78878
      vertex -2.5 81 4.5
      vertex -2.5 79.0841 4.78878
    endloop
  endfacet
  facet normal 0 -0.680174 0.733051
    outer loop
      vertex -2.5 86.0819 6.94732
      vertex 0 84.6616 5.62945
      vertex 0 86.0819 6.94732
    endloop
  endfacet
  facet normal 0 -0.680174 0.733051
    outer loop
      vertex 0 84.6616 5.62945
      vertex -2.5 86.0819 6.94732
      vertex -2.5 84.6616 5.62945
    endloop
  endfacet
  facet normal 0 -0.974928 0.222521
    outer loop
      vertex -2.5 87.0507 8.62528
      vertex 0 87.4818 10.5143
      vertex -2.5 87.4818 10.5143
    endloop
  endfacet
  facet normal 0 -0.974928 0.222521
    outer loop
      vertex 0 87.4818 10.5143
      vertex -2.5 87.0507 8.62528
      vertex 0 87.0507 8.62528
    endloop
  endfacet
  facet normal 0 -0.866024 0.500002
    outer loop
      vertex -2.5 86.0819 6.94732
      vertex 0 87.0507 8.62528
      vertex -2.5 87.0507 8.62528
    endloop
  endfacet
  facet normal 0 -0.866024 0.500002
    outer loop
      vertex 0 87.0507 8.62528
      vertex -2.5 86.0819 6.94732
      vertex 0 86.0819 6.94732
    endloop
  endfacet
  facet normal -0 0.680172 0.733052
    outer loop
      vertex -2.5 77.3384 5.62945
      vertex 0 75.9181 6.94732
      vertex 0 77.3384 5.62945
    endloop
  endfacet
  facet normal 0 0.680172 0.733052
    outer loop
      vertex 0 75.9181 6.94732
      vertex -2.5 77.3384 5.62945
      vertex -2.5 75.9181 6.94732
    endloop
  endfacet
  facet normal -1 0 0
    outer loop
      vertex 11 -2.5 0
      vertex 11 0 2.5
      vertex 11 0 0
    endloop
  endfacet
  facet normal -1 0 0
    outer loop
      vertex 11 -2.5 9.5
      vertex 11 0 2.5
      vertex 11 -2.5 0
    endloop
  endfacet
  facet normal -1 0 0
    outer loop
      vertex 11 0 2.5
      vertex 11 -2.5 9.5
      vertex 11 0 9.5
    endloop
  endfacet
  facet normal -0 0 1
    outer loop
      vertex 11 0 9.5
      vertex 19 -2.5 9.5
      vertex 19 0 9.5
    endloop
  endfacet
  facet normal 0 0 1
    outer loop
      vertex 19 -2.5 9.5
      vertex 11 0 9.5
      vertex 11 -2.5 9.5
    endloop
  endfacet
  facet normal 1 -0 0
    outer loop
      vertex 19 -2.5 9.5
      vertex 19 0 2.5
      vertex 19 0 9.5
    endloop
  endfacet
  facet normal 1 0 0
    outer loop
      vertex 19 -2.5 0
      vertex 19 0 2.5
      vertex 19 -2.5 9.5
    endloop
  endfacet
  facet normal 1 0 0
    outer loop
      vertex 19 0 2.5
      vertex 19 -2.5 0
      vertex 19 0 0
    endloop
  endfacet
  facet normal 0 -1 0
    outer loop
      vertex 11 -2.5 0
      vertex 19 -2.5 9.5
      vertex 11 -2.5 9.5
    endloop
  endfacet
  facet normal 0 -1 -0
    outer loop
      vertex 19 -2.5 9.5
      vertex 11 -2.5 0
      vertex 19 -2.5 0
    endloop
  endfacet
  facet normal -1 0 0
    outer loop
      vertex 38 -2.5 0
      vertex 38 0 2.5
      vertex 38 0 0
    endloop
  endfacet
  facet normal -1 0 0
    outer loop
      vertex 38 -2.5 5.5
      vertex 38 0 2.5
      vertex 38 -2.5 0
    endloop
  endfacet
  facet normal -1 0 0
    outer loop
      vertex 38 0 2.5
      vertex 38 -2.5 5.5
      vertex 38 0 5.5
    endloop
  endfacet
  facet normal -0 0 1
    outer loop
      vertex 38 0 5.5
      vertex 46 -2.5 5.5
      vertex 46 0 5.5
    endloop
  endfacet
  facet normal 0 0 1
    outer loop
      vertex 46 -2.5 5.5
      vertex 38 0 5.5
      vertex 38 -2.5 5.5
    endloop
  endfacet
  facet normal 1 -0 0
    outer loop
      vertex 46 -2.5 5.5
      vertex 46 0 2.5
      vertex 46 0 5.5
    endloop
  endfacet
  facet normal 1 0 0
    outer loop
      vertex 46 -2.5 0
      vertex 46 0 2.5
      vertex 46 -2.5 5.5
    endloop
  endfacet
  facet normal 1 0 0
    outer loop
      vertex 46 0 2.5
      vertex 46 -2.5 0
      vertex 46 0 0
    endloop
  endfacet
  facet normal 0 -1 0
    outer loop
      vertex 38 -2.5 0
      vertex 46 -2.5 5.5
      vertex 38 -2.5 5.5
    endloop
  endfacet
  facet normal 0 -1 -0
    outer loop
      vertex 46 -2.5 5.5
      vertex 38 -2.5 0
      vertex 46 -2.5 0
    endloop
  endfacet
endsolid OpenSCAD_Model
