solid OpenSCAD_Model
  facet normal -1 0 0
    outer loop
      vertex 2.5 2.5 2.5
      vertex 2.5 12 9.5
      vertex 2.5 12 2.5
    endloop
  endfacet
  facet normal -1 -0 0
    outer loop
      vertex 2.5 12 9.5
      vertex 2.5 2.5 2.5
      vertex 2.5 2.5 9.5
    endloop
  endfacet
  facet normal -0 0 1
    outer loop
      vertex 2.5 12 9.5
      vertex 12 2.5 9.5
      vertex 12 12 9.5
    endloop
  endfacet
  facet normal 0 0 1
    outer loop
      vertex 12 2.5 9.5
      vertex 2.5 12 9.5
      vertex 2.5 2.5 9.5
    endloop
  endfacet
  facet normal 1 -0 0
    outer loop
      vertex 12 2.5 9.5
      vertex 12 12 2.5
      vertex 12 12 9.5
    endloop
  endfacet
  facet normal 1 0 0
    outer loop
      vertex 12 12 2.5
      vertex 12 2.5 9.5
      vertex 12 2.5 2.5
    endloop
  endfacet
  facet normal 0 0 1
    outer loop
      vertex 12 2.5 2.5
      vertex 15 12.5 2.5
      vertex 12 12 2.5
    endloop
  endfacet
  facet normal -0 0 1
    outer loop
      vertex 0 12.5 2.5
      vertex 12 12 2.5
      vertex 15 12.5 2.5
    endloop
  endfacet
  facet normal 0 0 1
    outer loop
      vertex 2.5 12 2.5
      vertex 0 12.5 2.5
      vertex 2.5 2.5 2.5
    endloop
  endfacet
  facet normal 0 0 1
    outer loop
      vertex 12 12 2.5
      vertex 0 12.5 2.5
      vertex 2.5 12 2.5
    endloop
  endfacet
  facet normal 0 0 1
    outer loop
      vertex 15 12.5 2.5
      vertex 12 2.5 2.5
      vertex 15 0 2.5
    endloop
  endfacet
  facet normal 0 0 1
    outer loop
      vertex 0 0 2.5
      vertex 12 2.5 2.5
      vertex 2.5 2.5 2.5
    endloop
  endfacet
  facet normal 0 0 1
    outer loop
      vertex 12 2.5 2.5
      vertex 0 0 2.5
      vertex 15 0 2.5
    endloop
  endfacet
  facet normal 0 0 1
    outer loop
      vertex 0 0 2.5
      vertex 2.5 2.5 2.5
      vertex 0 12.5 2.5
    endloop
  endfacet
  facet normal 0 -1 0
    outer loop
      vertex 2.5 2.5 2.5
      vertex 12 2.5 9.5
      vertex 2.5 2.5 9.5
    endloop
  endfacet
  facet normal 0 -1 -0
    outer loop
      vertex 12 2.5 9.5
      vertex 2.5 2.5 2.5
      vertex 12 2.5 2.5
    endloop
  endfacet
  facet normal 0 1 -0
    outer loop
      vertex 12 12 2.5
      vertex 2.5 12 9.5
      vertex 12 12 9.5
    endloop
  endfacet
  facet normal 0 1 0
    outer loop
      vertex 2.5 12 9.5
      vertex 12 12 2.5
      vertex 2.5 12 2.5
    endloop
  endfacet
  facet normal -1 0 0
    outer loop
      vertex 0 0 0
      vertex 0 12.5 2.5
      vertex 0 12.5 0
    endloop
  endfacet
  facet normal -1 -0 0
    outer loop
      vertex 0 12.5 2.5
      vertex 0 0 0
      vertex 0 0 2.5
    endloop
  endfacet
  facet normal 1 -0 0
    outer loop
      vertex 15 0 2.5
      vertex 15 12.5 0
      vertex 15 12.5 2.5
    endloop
  endfacet
  facet normal 1 0 0
    outer loop
      vertex 15 12.5 0
      vertex 15 0 2.5
      vertex 15 0 0
    endloop
  endfacet
  facet normal 0 0 -1
    outer loop
      vertex 0 0 0
      vertex 15 12.5 0
      vertex 15 0 0
    endloop
  endfacet
  facet normal -0 0 -1
    outer loop
      vertex 15 12.5 0
      vertex 0 0 0
      vertex 0 12.5 0
    endloop
  endfacet
  facet normal 0 -1 0
    outer loop
      vertex 0 0 0
      vertex 15 0 2.5
      vertex 0 0 2.5
    endloop
  endfacet
  facet normal 0 -1 -0
    outer loop
      vertex 15 0 2.5
      vertex 0 0 0
      vertex 15 0 0
    endloop
  endfacet
  facet normal 0 1 -0
    outer loop
      vertex 15 12.5 0
      vertex 0 12.5 2.5
      vertex 15 12.5 2.5
    endloop
  endfacet
  facet normal 0 1 0
    outer loop
      vertex 0 12.5 2.5
      vertex 15 12.5 0
      vertex 0 12.5 0
    endloop
  endfacet
endsolid OpenSCAD_Model
