G04 EAGLE Gerber RS-274X export*
G75*
%MOMM*%
%FSLAX34Y34*%
%LPD*%
%INBottom Copper*%
%IPPOS*%
%AMOC8*
5,1,8,0,0,1.08239X$1,22.5*%
G01*
%ADD10R,1.676400X1.676400*%
%ADD11C,1.676400*%
%ADD12C,1.879600*%

G36*
X223802Y10164D02*
X223802Y10164D01*
X223828Y10162D01*
X223975Y10184D01*
X224122Y10201D01*
X224147Y10209D01*
X224173Y10213D01*
X224311Y10268D01*
X224450Y10318D01*
X224472Y10332D01*
X224497Y10342D01*
X224618Y10427D01*
X224743Y10507D01*
X224761Y10526D01*
X224783Y10541D01*
X224882Y10651D01*
X224985Y10758D01*
X224999Y10780D01*
X225016Y10800D01*
X225088Y10930D01*
X225164Y11057D01*
X225172Y11082D01*
X225185Y11105D01*
X225225Y11248D01*
X225270Y11389D01*
X225272Y11415D01*
X225280Y11440D01*
X225299Y11684D01*
X225299Y15675D01*
X225288Y15775D01*
X225286Y15875D01*
X225268Y15947D01*
X225259Y16021D01*
X225226Y16116D01*
X225201Y16213D01*
X225167Y16279D01*
X225142Y16349D01*
X225087Y16433D01*
X225041Y16523D01*
X224993Y16579D01*
X224953Y16642D01*
X224881Y16712D01*
X224816Y16788D01*
X224756Y16832D01*
X224702Y16884D01*
X224616Y16936D01*
X224535Y16995D01*
X224467Y17025D01*
X224403Y17063D01*
X224308Y17093D01*
X224215Y17133D01*
X224142Y17147D01*
X224071Y17169D01*
X223971Y17177D01*
X223872Y17195D01*
X223798Y17191D01*
X223724Y17197D01*
X223624Y17182D01*
X223524Y17177D01*
X223453Y17156D01*
X223379Y17145D01*
X223286Y17108D01*
X223189Y17080D01*
X223124Y17044D01*
X223055Y17017D01*
X222973Y16959D01*
X222885Y16910D01*
X222809Y16845D01*
X222769Y16818D01*
X222745Y16791D01*
X222699Y16752D01*
X222087Y16140D01*
X218073Y14477D01*
X213727Y14477D01*
X209713Y16140D01*
X206640Y19213D01*
X204977Y23227D01*
X204977Y27573D01*
X206640Y31587D01*
X209713Y34660D01*
X213727Y36323D01*
X218073Y36323D01*
X222087Y34660D01*
X222699Y34048D01*
X222778Y33986D01*
X222850Y33916D01*
X222914Y33878D01*
X222972Y33832D01*
X223063Y33789D01*
X223149Y33737D01*
X223220Y33714D01*
X223287Y33683D01*
X223385Y33661D01*
X223481Y33631D01*
X223555Y33625D01*
X223628Y33609D01*
X223728Y33611D01*
X223828Y33603D01*
X223902Y33614D01*
X223976Y33615D01*
X224073Y33640D01*
X224173Y33655D01*
X224242Y33682D01*
X224314Y33700D01*
X224403Y33746D01*
X224497Y33783D01*
X224558Y33826D01*
X224624Y33860D01*
X224701Y33925D01*
X224783Y33982D01*
X224833Y34037D01*
X224889Y34086D01*
X224949Y34166D01*
X225016Y34241D01*
X225052Y34306D01*
X225097Y34366D01*
X225136Y34458D01*
X225185Y34546D01*
X225205Y34618D01*
X225235Y34686D01*
X225252Y34785D01*
X225280Y34881D01*
X225288Y34981D01*
X225296Y35029D01*
X225294Y35065D01*
X225299Y35125D01*
X225299Y41075D01*
X225288Y41175D01*
X225286Y41275D01*
X225268Y41347D01*
X225259Y41421D01*
X225226Y41516D01*
X225201Y41613D01*
X225167Y41679D01*
X225142Y41749D01*
X225087Y41833D01*
X225041Y41923D01*
X224993Y41979D01*
X224953Y42042D01*
X224881Y42112D01*
X224816Y42188D01*
X224756Y42232D01*
X224702Y42284D01*
X224616Y42336D01*
X224535Y42395D01*
X224467Y42425D01*
X224403Y42463D01*
X224308Y42493D01*
X224215Y42533D01*
X224142Y42547D01*
X224071Y42569D01*
X223971Y42577D01*
X223872Y42595D01*
X223798Y42591D01*
X223724Y42597D01*
X223624Y42582D01*
X223524Y42577D01*
X223453Y42556D01*
X223379Y42545D01*
X223286Y42508D01*
X223189Y42480D01*
X223124Y42444D01*
X223055Y42417D01*
X222973Y42359D01*
X222885Y42310D01*
X222809Y42245D01*
X222769Y42218D01*
X222745Y42191D01*
X222699Y42152D01*
X222087Y41540D01*
X218073Y39877D01*
X213727Y39877D01*
X209713Y41540D01*
X206640Y44613D01*
X204977Y48627D01*
X204977Y52973D01*
X206640Y56987D01*
X209713Y60060D01*
X213727Y61723D01*
X218073Y61723D01*
X222087Y60060D01*
X222699Y59448D01*
X222778Y59386D01*
X222850Y59316D01*
X222914Y59278D01*
X222972Y59232D01*
X223063Y59189D01*
X223149Y59137D01*
X223220Y59114D01*
X223287Y59083D01*
X223385Y59061D01*
X223481Y59031D01*
X223555Y59025D01*
X223628Y59009D01*
X223728Y59011D01*
X223828Y59003D01*
X223902Y59014D01*
X223976Y59015D01*
X224073Y59040D01*
X224173Y59055D01*
X224242Y59082D01*
X224314Y59100D01*
X224403Y59146D01*
X224497Y59183D01*
X224558Y59226D01*
X224624Y59260D01*
X224701Y59325D01*
X224783Y59382D01*
X224833Y59437D01*
X224889Y59486D01*
X224949Y59566D01*
X225016Y59641D01*
X225052Y59706D01*
X225097Y59766D01*
X225136Y59858D01*
X225185Y59946D01*
X225205Y60018D01*
X225235Y60086D01*
X225252Y60185D01*
X225280Y60281D01*
X225288Y60381D01*
X225296Y60429D01*
X225294Y60465D01*
X225299Y60525D01*
X225299Y66475D01*
X225288Y66575D01*
X225286Y66675D01*
X225268Y66747D01*
X225259Y66821D01*
X225226Y66916D01*
X225201Y67013D01*
X225167Y67079D01*
X225142Y67149D01*
X225087Y67233D01*
X225041Y67323D01*
X224993Y67379D01*
X224953Y67442D01*
X224881Y67512D01*
X224816Y67588D01*
X224756Y67632D01*
X224702Y67684D01*
X224616Y67736D01*
X224535Y67795D01*
X224467Y67825D01*
X224403Y67863D01*
X224308Y67893D01*
X224215Y67933D01*
X224142Y67947D01*
X224071Y67969D01*
X223971Y67977D01*
X223872Y67995D01*
X223798Y67991D01*
X223724Y67997D01*
X223624Y67982D01*
X223524Y67977D01*
X223453Y67956D01*
X223379Y67945D01*
X223286Y67908D01*
X223189Y67880D01*
X223124Y67844D01*
X223055Y67817D01*
X222973Y67759D01*
X222885Y67710D01*
X222809Y67645D01*
X222769Y67618D01*
X222745Y67591D01*
X222699Y67552D01*
X222087Y66940D01*
X218073Y65277D01*
X213727Y65277D01*
X209713Y66940D01*
X206640Y70013D01*
X204977Y74027D01*
X204977Y78373D01*
X206640Y82387D01*
X209713Y85460D01*
X213727Y87123D01*
X218073Y87123D01*
X222087Y85460D01*
X222699Y84848D01*
X222778Y84786D01*
X222850Y84716D01*
X222914Y84678D01*
X222972Y84632D01*
X223063Y84589D01*
X223149Y84537D01*
X223220Y84514D01*
X223287Y84483D01*
X223385Y84461D01*
X223481Y84431D01*
X223555Y84425D01*
X223628Y84409D01*
X223728Y84411D01*
X223828Y84403D01*
X223902Y84414D01*
X223976Y84415D01*
X224073Y84440D01*
X224173Y84455D01*
X224242Y84482D01*
X224314Y84500D01*
X224403Y84546D01*
X224497Y84583D01*
X224558Y84626D01*
X224624Y84660D01*
X224701Y84725D01*
X224783Y84782D01*
X224833Y84837D01*
X224889Y84886D01*
X224949Y84966D01*
X225016Y85041D01*
X225052Y85106D01*
X225097Y85166D01*
X225136Y85258D01*
X225185Y85346D01*
X225205Y85418D01*
X225235Y85486D01*
X225252Y85585D01*
X225280Y85681D01*
X225288Y85781D01*
X225296Y85829D01*
X225294Y85865D01*
X225299Y85925D01*
X225299Y91875D01*
X225288Y91975D01*
X225286Y92075D01*
X225268Y92147D01*
X225259Y92221D01*
X225226Y92316D01*
X225201Y92413D01*
X225167Y92479D01*
X225142Y92549D01*
X225087Y92633D01*
X225041Y92723D01*
X224993Y92779D01*
X224953Y92842D01*
X224881Y92912D01*
X224816Y92988D01*
X224756Y93032D01*
X224702Y93084D01*
X224616Y93136D01*
X224535Y93195D01*
X224467Y93225D01*
X224403Y93263D01*
X224308Y93293D01*
X224215Y93333D01*
X224142Y93347D01*
X224071Y93369D01*
X223971Y93377D01*
X223872Y93395D01*
X223798Y93391D01*
X223724Y93397D01*
X223624Y93382D01*
X223524Y93377D01*
X223453Y93356D01*
X223379Y93345D01*
X223286Y93308D01*
X223189Y93280D01*
X223124Y93244D01*
X223055Y93217D01*
X222973Y93159D01*
X222885Y93110D01*
X222809Y93045D01*
X222769Y93018D01*
X222745Y92991D01*
X222699Y92952D01*
X222087Y92340D01*
X218073Y90677D01*
X213727Y90677D01*
X209713Y92340D01*
X206640Y95413D01*
X204977Y99427D01*
X204977Y103773D01*
X206640Y107787D01*
X209713Y110860D01*
X213727Y112523D01*
X218073Y112523D01*
X222087Y110860D01*
X222699Y110248D01*
X222778Y110186D01*
X222850Y110116D01*
X222914Y110078D01*
X222972Y110032D01*
X223063Y109989D01*
X223149Y109937D01*
X223220Y109914D01*
X223287Y109883D01*
X223385Y109861D01*
X223481Y109831D01*
X223555Y109825D01*
X223628Y109809D01*
X223728Y109811D01*
X223828Y109803D01*
X223902Y109814D01*
X223976Y109815D01*
X224073Y109840D01*
X224173Y109855D01*
X224242Y109882D01*
X224314Y109900D01*
X224403Y109946D01*
X224497Y109983D01*
X224558Y110026D01*
X224624Y110060D01*
X224701Y110125D01*
X224783Y110182D01*
X224833Y110237D01*
X224889Y110286D01*
X224949Y110366D01*
X225016Y110441D01*
X225052Y110506D01*
X225097Y110566D01*
X225136Y110658D01*
X225185Y110746D01*
X225205Y110818D01*
X225235Y110886D01*
X225252Y110985D01*
X225280Y111081D01*
X225288Y111181D01*
X225296Y111229D01*
X225294Y111265D01*
X225299Y111325D01*
X225299Y117275D01*
X225288Y117375D01*
X225286Y117475D01*
X225268Y117547D01*
X225259Y117621D01*
X225226Y117716D01*
X225201Y117813D01*
X225167Y117879D01*
X225142Y117949D01*
X225087Y118033D01*
X225041Y118123D01*
X224993Y118179D01*
X224953Y118242D01*
X224881Y118312D01*
X224816Y118388D01*
X224756Y118432D01*
X224702Y118484D01*
X224616Y118536D01*
X224535Y118595D01*
X224467Y118625D01*
X224403Y118663D01*
X224308Y118693D01*
X224215Y118733D01*
X224142Y118747D01*
X224071Y118769D01*
X223971Y118777D01*
X223872Y118795D01*
X223798Y118791D01*
X223724Y118797D01*
X223624Y118782D01*
X223524Y118777D01*
X223453Y118756D01*
X223379Y118745D01*
X223286Y118708D01*
X223189Y118680D01*
X223124Y118644D01*
X223055Y118617D01*
X222973Y118559D01*
X222885Y118510D01*
X222809Y118445D01*
X222769Y118418D01*
X222745Y118391D01*
X222699Y118352D01*
X222087Y117740D01*
X218073Y116077D01*
X213727Y116077D01*
X209713Y117740D01*
X206640Y120813D01*
X204977Y124827D01*
X204977Y129173D01*
X206640Y133187D01*
X209713Y136260D01*
X213727Y137923D01*
X218073Y137923D01*
X222087Y136260D01*
X222699Y135648D01*
X222778Y135586D01*
X222850Y135516D01*
X222914Y135478D01*
X222972Y135432D01*
X223063Y135389D01*
X223149Y135337D01*
X223220Y135314D01*
X223287Y135283D01*
X223385Y135261D01*
X223481Y135231D01*
X223555Y135225D01*
X223628Y135209D01*
X223728Y135211D01*
X223828Y135203D01*
X223902Y135214D01*
X223976Y135215D01*
X224073Y135240D01*
X224173Y135255D01*
X224242Y135282D01*
X224314Y135300D01*
X224403Y135346D01*
X224497Y135383D01*
X224558Y135426D01*
X224624Y135460D01*
X224701Y135525D01*
X224783Y135582D01*
X224833Y135637D01*
X224889Y135686D01*
X224949Y135766D01*
X225016Y135841D01*
X225052Y135906D01*
X225097Y135966D01*
X225136Y136058D01*
X225185Y136146D01*
X225205Y136218D01*
X225235Y136286D01*
X225252Y136385D01*
X225280Y136481D01*
X225288Y136581D01*
X225296Y136629D01*
X225294Y136665D01*
X225299Y136725D01*
X225299Y142675D01*
X225288Y142775D01*
X225286Y142875D01*
X225268Y142947D01*
X225259Y143021D01*
X225226Y143116D01*
X225201Y143213D01*
X225167Y143279D01*
X225142Y143349D01*
X225087Y143433D01*
X225041Y143523D01*
X224993Y143579D01*
X224953Y143642D01*
X224881Y143712D01*
X224816Y143788D01*
X224756Y143832D01*
X224702Y143884D01*
X224616Y143936D01*
X224535Y143995D01*
X224467Y144025D01*
X224403Y144063D01*
X224308Y144093D01*
X224215Y144133D01*
X224142Y144147D01*
X224071Y144169D01*
X223971Y144177D01*
X223872Y144195D01*
X223798Y144191D01*
X223724Y144197D01*
X223624Y144182D01*
X223524Y144177D01*
X223453Y144156D01*
X223379Y144145D01*
X223286Y144108D01*
X223189Y144080D01*
X223124Y144044D01*
X223055Y144017D01*
X222973Y143959D01*
X222885Y143910D01*
X222809Y143845D01*
X222769Y143818D01*
X222745Y143791D01*
X222699Y143752D01*
X222087Y143140D01*
X218073Y141477D01*
X213727Y141477D01*
X209713Y143140D01*
X206640Y146213D01*
X204977Y150227D01*
X204977Y154573D01*
X206640Y158587D01*
X209713Y161660D01*
X213727Y163323D01*
X218073Y163323D01*
X222087Y161660D01*
X222699Y161048D01*
X222778Y160986D01*
X222850Y160916D01*
X222914Y160878D01*
X222972Y160832D01*
X223063Y160789D01*
X223149Y160737D01*
X223220Y160714D01*
X223287Y160683D01*
X223385Y160661D01*
X223481Y160631D01*
X223555Y160625D01*
X223628Y160609D01*
X223728Y160611D01*
X223828Y160603D01*
X223902Y160614D01*
X223976Y160615D01*
X224073Y160640D01*
X224173Y160655D01*
X224242Y160682D01*
X224314Y160700D01*
X224403Y160746D01*
X224497Y160783D01*
X224558Y160826D01*
X224624Y160860D01*
X224701Y160925D01*
X224783Y160982D01*
X224833Y161037D01*
X224889Y161086D01*
X224949Y161166D01*
X225016Y161241D01*
X225052Y161306D01*
X225097Y161366D01*
X225136Y161458D01*
X225185Y161546D01*
X225205Y161618D01*
X225235Y161686D01*
X225252Y161785D01*
X225280Y161881D01*
X225288Y161981D01*
X225296Y162029D01*
X225294Y162065D01*
X225299Y162125D01*
X225299Y168075D01*
X225288Y168175D01*
X225286Y168275D01*
X225268Y168347D01*
X225259Y168421D01*
X225226Y168516D01*
X225201Y168613D01*
X225167Y168679D01*
X225142Y168749D01*
X225087Y168833D01*
X225041Y168923D01*
X224993Y168979D01*
X224953Y169042D01*
X224881Y169112D01*
X224816Y169188D01*
X224756Y169232D01*
X224702Y169284D01*
X224616Y169336D01*
X224535Y169395D01*
X224467Y169425D01*
X224403Y169463D01*
X224308Y169493D01*
X224215Y169533D01*
X224142Y169547D01*
X224071Y169569D01*
X223971Y169577D01*
X223872Y169595D01*
X223798Y169591D01*
X223724Y169597D01*
X223624Y169582D01*
X223524Y169577D01*
X223453Y169556D01*
X223379Y169545D01*
X223286Y169508D01*
X223189Y169480D01*
X223124Y169444D01*
X223055Y169417D01*
X222973Y169359D01*
X222885Y169310D01*
X222809Y169245D01*
X222769Y169218D01*
X222745Y169191D01*
X222699Y169152D01*
X222087Y168540D01*
X218073Y166877D01*
X213727Y166877D01*
X209713Y168540D01*
X206640Y171613D01*
X204977Y175627D01*
X204977Y179973D01*
X206640Y183987D01*
X209713Y187060D01*
X213727Y188723D01*
X218073Y188723D01*
X222087Y187060D01*
X222699Y186448D01*
X222778Y186386D01*
X222850Y186316D01*
X222914Y186278D01*
X222972Y186232D01*
X223063Y186189D01*
X223149Y186137D01*
X223220Y186114D01*
X223287Y186083D01*
X223385Y186061D01*
X223481Y186031D01*
X223555Y186025D01*
X223628Y186009D01*
X223728Y186011D01*
X223828Y186003D01*
X223902Y186014D01*
X223976Y186015D01*
X224073Y186040D01*
X224173Y186055D01*
X224242Y186082D01*
X224314Y186100D01*
X224403Y186146D01*
X224497Y186183D01*
X224558Y186226D01*
X224624Y186260D01*
X224701Y186325D01*
X224783Y186382D01*
X224833Y186437D01*
X224889Y186486D01*
X224949Y186566D01*
X225016Y186641D01*
X225052Y186706D01*
X225097Y186766D01*
X225136Y186858D01*
X225185Y186946D01*
X225205Y187018D01*
X225235Y187086D01*
X225252Y187185D01*
X225280Y187281D01*
X225288Y187381D01*
X225296Y187429D01*
X225294Y187465D01*
X225299Y187525D01*
X225299Y193475D01*
X225288Y193575D01*
X225286Y193675D01*
X225268Y193747D01*
X225259Y193821D01*
X225226Y193916D01*
X225201Y194013D01*
X225167Y194079D01*
X225142Y194149D01*
X225087Y194233D01*
X225041Y194323D01*
X224993Y194379D01*
X224953Y194442D01*
X224881Y194512D01*
X224816Y194588D01*
X224756Y194632D01*
X224702Y194684D01*
X224616Y194736D01*
X224535Y194795D01*
X224467Y194825D01*
X224403Y194863D01*
X224308Y194893D01*
X224215Y194933D01*
X224142Y194947D01*
X224071Y194969D01*
X223971Y194977D01*
X223872Y194995D01*
X223798Y194991D01*
X223724Y194997D01*
X223624Y194982D01*
X223524Y194977D01*
X223453Y194956D01*
X223379Y194945D01*
X223286Y194908D01*
X223189Y194880D01*
X223124Y194844D01*
X223055Y194817D01*
X222973Y194759D01*
X222885Y194710D01*
X222809Y194645D01*
X222769Y194618D01*
X222745Y194591D01*
X222699Y194552D01*
X222087Y193940D01*
X218073Y192277D01*
X213727Y192277D01*
X209713Y193940D01*
X206640Y197013D01*
X204977Y201027D01*
X204977Y205373D01*
X206640Y209387D01*
X209713Y212460D01*
X213727Y214123D01*
X218073Y214123D01*
X222087Y212460D01*
X222699Y211848D01*
X222778Y211786D01*
X222850Y211716D01*
X222914Y211678D01*
X222972Y211632D01*
X223063Y211589D01*
X223149Y211537D01*
X223220Y211514D01*
X223287Y211483D01*
X223385Y211461D01*
X223481Y211431D01*
X223555Y211425D01*
X223628Y211409D01*
X223728Y211411D01*
X223828Y211403D01*
X223902Y211414D01*
X223976Y211415D01*
X224073Y211440D01*
X224173Y211455D01*
X224242Y211482D01*
X224314Y211500D01*
X224403Y211546D01*
X224497Y211583D01*
X224558Y211626D01*
X224624Y211660D01*
X224701Y211725D01*
X224783Y211782D01*
X224833Y211837D01*
X224889Y211886D01*
X224949Y211966D01*
X225016Y212041D01*
X225052Y212106D01*
X225097Y212166D01*
X225136Y212258D01*
X225185Y212346D01*
X225205Y212418D01*
X225235Y212486D01*
X225252Y212585D01*
X225280Y212681D01*
X225288Y212781D01*
X225296Y212829D01*
X225294Y212865D01*
X225299Y212925D01*
X225299Y218875D01*
X225298Y218889D01*
X225298Y218898D01*
X225291Y218950D01*
X225288Y218975D01*
X225286Y219075D01*
X225268Y219147D01*
X225259Y219221D01*
X225226Y219316D01*
X225201Y219413D01*
X225167Y219479D01*
X225142Y219549D01*
X225087Y219633D01*
X225041Y219723D01*
X224993Y219779D01*
X224953Y219842D01*
X224881Y219912D01*
X224816Y219988D01*
X224756Y220032D01*
X224702Y220084D01*
X224616Y220136D01*
X224535Y220195D01*
X224467Y220225D01*
X224403Y220263D01*
X224308Y220293D01*
X224215Y220333D01*
X224142Y220347D01*
X224071Y220369D01*
X223971Y220377D01*
X223872Y220395D01*
X223798Y220391D01*
X223724Y220397D01*
X223624Y220382D01*
X223524Y220377D01*
X223453Y220356D01*
X223379Y220345D01*
X223286Y220308D01*
X223189Y220280D01*
X223124Y220244D01*
X223055Y220217D01*
X222973Y220159D01*
X222885Y220110D01*
X222809Y220045D01*
X222769Y220018D01*
X222745Y219991D01*
X222699Y219952D01*
X222087Y219340D01*
X218073Y217677D01*
X213727Y217677D01*
X209713Y219340D01*
X206640Y222413D01*
X204977Y226427D01*
X204977Y230773D01*
X206640Y234787D01*
X209713Y237860D01*
X213727Y239523D01*
X218073Y239523D01*
X222087Y237860D01*
X222699Y237248D01*
X222778Y237186D01*
X222850Y237116D01*
X222914Y237078D01*
X222972Y237032D01*
X223063Y236989D01*
X223149Y236937D01*
X223220Y236914D01*
X223287Y236883D01*
X223385Y236861D01*
X223481Y236831D01*
X223555Y236825D01*
X223628Y236809D01*
X223728Y236811D01*
X223828Y236803D01*
X223902Y236814D01*
X223976Y236815D01*
X224073Y236840D01*
X224173Y236855D01*
X224242Y236882D01*
X224314Y236900D01*
X224403Y236946D01*
X224497Y236983D01*
X224558Y237026D01*
X224624Y237060D01*
X224701Y237125D01*
X224783Y237182D01*
X224833Y237237D01*
X224889Y237286D01*
X224949Y237366D01*
X225016Y237441D01*
X225052Y237506D01*
X225097Y237566D01*
X225136Y237658D01*
X225185Y237746D01*
X225205Y237818D01*
X225235Y237886D01*
X225252Y237985D01*
X225280Y238081D01*
X225288Y238181D01*
X225296Y238229D01*
X225294Y238265D01*
X225299Y238325D01*
X225299Y244275D01*
X225288Y244375D01*
X225286Y244475D01*
X225268Y244547D01*
X225259Y244621D01*
X225226Y244716D01*
X225201Y244813D01*
X225167Y244879D01*
X225142Y244949D01*
X225087Y245033D01*
X225041Y245123D01*
X224993Y245179D01*
X224953Y245242D01*
X224881Y245312D01*
X224816Y245388D01*
X224756Y245432D01*
X224702Y245484D01*
X224616Y245536D01*
X224535Y245595D01*
X224467Y245625D01*
X224403Y245663D01*
X224308Y245693D01*
X224215Y245733D01*
X224142Y245747D01*
X224071Y245769D01*
X223971Y245777D01*
X223872Y245795D01*
X223798Y245791D01*
X223724Y245797D01*
X223624Y245782D01*
X223524Y245777D01*
X223453Y245756D01*
X223379Y245745D01*
X223286Y245708D01*
X223189Y245680D01*
X223124Y245644D01*
X223055Y245617D01*
X222973Y245559D01*
X222885Y245510D01*
X222809Y245445D01*
X222769Y245418D01*
X222745Y245391D01*
X222699Y245352D01*
X222087Y244740D01*
X218073Y243077D01*
X213727Y243077D01*
X209713Y244740D01*
X206640Y247813D01*
X204977Y251827D01*
X204977Y256173D01*
X206640Y260187D01*
X209713Y263260D01*
X213727Y264923D01*
X218073Y264923D01*
X222087Y263260D01*
X222699Y262648D01*
X222778Y262586D01*
X222850Y262516D01*
X222914Y262478D01*
X222972Y262432D01*
X223063Y262389D01*
X223149Y262337D01*
X223220Y262314D01*
X223287Y262283D01*
X223385Y262261D01*
X223481Y262231D01*
X223555Y262225D01*
X223628Y262209D01*
X223728Y262211D01*
X223828Y262203D01*
X223902Y262214D01*
X223976Y262215D01*
X224073Y262240D01*
X224173Y262255D01*
X224242Y262282D01*
X224314Y262300D01*
X224403Y262346D01*
X224497Y262383D01*
X224558Y262426D01*
X224624Y262460D01*
X224701Y262525D01*
X224783Y262582D01*
X224833Y262637D01*
X224889Y262686D01*
X224949Y262766D01*
X225016Y262841D01*
X225052Y262906D01*
X225097Y262966D01*
X225136Y263058D01*
X225185Y263146D01*
X225205Y263218D01*
X225235Y263286D01*
X225252Y263385D01*
X225280Y263481D01*
X225288Y263581D01*
X225296Y263629D01*
X225294Y263665D01*
X225299Y263725D01*
X225299Y269675D01*
X225288Y269775D01*
X225286Y269875D01*
X225268Y269947D01*
X225259Y270021D01*
X225226Y270116D01*
X225201Y270213D01*
X225167Y270279D01*
X225142Y270349D01*
X225087Y270433D01*
X225041Y270523D01*
X224993Y270579D01*
X224953Y270642D01*
X224881Y270712D01*
X224816Y270788D01*
X224756Y270832D01*
X224702Y270884D01*
X224616Y270936D01*
X224535Y270995D01*
X224467Y271025D01*
X224403Y271063D01*
X224308Y271093D01*
X224215Y271133D01*
X224142Y271147D01*
X224071Y271169D01*
X223971Y271177D01*
X223872Y271195D01*
X223798Y271191D01*
X223724Y271197D01*
X223624Y271182D01*
X223524Y271177D01*
X223453Y271156D01*
X223379Y271145D01*
X223286Y271108D01*
X223189Y271080D01*
X223124Y271044D01*
X223055Y271017D01*
X222973Y270959D01*
X222885Y270910D01*
X222809Y270845D01*
X222769Y270818D01*
X222745Y270791D01*
X222699Y270752D01*
X222087Y270140D01*
X218073Y268477D01*
X213727Y268477D01*
X209713Y270140D01*
X206640Y273213D01*
X204977Y277227D01*
X204977Y281573D01*
X206640Y285587D01*
X209713Y288660D01*
X213727Y290323D01*
X218073Y290323D01*
X222087Y288660D01*
X222699Y288048D01*
X222778Y287986D01*
X222850Y287916D01*
X222914Y287878D01*
X222972Y287832D01*
X223063Y287789D01*
X223149Y287737D01*
X223220Y287714D01*
X223287Y287683D01*
X223385Y287661D01*
X223481Y287631D01*
X223555Y287625D01*
X223628Y287609D01*
X223728Y287611D01*
X223828Y287603D01*
X223902Y287614D01*
X223976Y287615D01*
X224073Y287640D01*
X224173Y287655D01*
X224242Y287682D01*
X224314Y287700D01*
X224403Y287746D01*
X224497Y287783D01*
X224558Y287826D01*
X224624Y287860D01*
X224701Y287925D01*
X224783Y287982D01*
X224833Y288037D01*
X224889Y288086D01*
X224949Y288166D01*
X225016Y288241D01*
X225052Y288306D01*
X225097Y288366D01*
X225136Y288458D01*
X225185Y288546D01*
X225205Y288618D01*
X225235Y288686D01*
X225252Y288785D01*
X225280Y288881D01*
X225288Y288981D01*
X225296Y289029D01*
X225294Y289065D01*
X225299Y289125D01*
X225299Y295075D01*
X225288Y295175D01*
X225286Y295275D01*
X225268Y295347D01*
X225259Y295421D01*
X225226Y295516D01*
X225201Y295613D01*
X225167Y295679D01*
X225142Y295749D01*
X225087Y295833D01*
X225041Y295923D01*
X224993Y295979D01*
X224953Y296042D01*
X224881Y296112D01*
X224816Y296188D01*
X224756Y296232D01*
X224702Y296284D01*
X224616Y296336D01*
X224535Y296395D01*
X224467Y296425D01*
X224403Y296463D01*
X224308Y296493D01*
X224215Y296533D01*
X224142Y296547D01*
X224071Y296569D01*
X223971Y296577D01*
X223872Y296595D01*
X223798Y296591D01*
X223724Y296597D01*
X223624Y296582D01*
X223524Y296577D01*
X223453Y296556D01*
X223379Y296545D01*
X223286Y296508D01*
X223189Y296480D01*
X223124Y296444D01*
X223055Y296417D01*
X222973Y296359D01*
X222885Y296310D01*
X222809Y296245D01*
X222769Y296218D01*
X222745Y296191D01*
X222699Y296152D01*
X222087Y295540D01*
X218073Y293877D01*
X213727Y293877D01*
X209713Y295540D01*
X206640Y298613D01*
X204977Y302627D01*
X204977Y306973D01*
X206640Y310987D01*
X209713Y314060D01*
X213727Y315723D01*
X218073Y315723D01*
X222087Y314060D01*
X222699Y313448D01*
X222778Y313386D01*
X222850Y313316D01*
X222914Y313278D01*
X222972Y313232D01*
X223063Y313189D01*
X223149Y313137D01*
X223220Y313114D01*
X223287Y313083D01*
X223385Y313061D01*
X223481Y313031D01*
X223555Y313025D01*
X223628Y313009D01*
X223728Y313011D01*
X223828Y313003D01*
X223902Y313014D01*
X223976Y313015D01*
X224073Y313040D01*
X224173Y313055D01*
X224242Y313082D01*
X224314Y313100D01*
X224403Y313146D01*
X224497Y313183D01*
X224558Y313226D01*
X224624Y313260D01*
X224701Y313325D01*
X224783Y313382D01*
X224833Y313437D01*
X224889Y313486D01*
X224949Y313566D01*
X225016Y313641D01*
X225052Y313706D01*
X225097Y313766D01*
X225136Y313858D01*
X225185Y313946D01*
X225205Y314018D01*
X225235Y314086D01*
X225252Y314185D01*
X225280Y314281D01*
X225288Y314381D01*
X225296Y314429D01*
X225294Y314465D01*
X225299Y314525D01*
X225299Y414936D01*
X225296Y414962D01*
X225298Y414988D01*
X225276Y415135D01*
X225259Y415282D01*
X225251Y415307D01*
X225247Y415333D01*
X225192Y415471D01*
X225142Y415610D01*
X225128Y415632D01*
X225118Y415657D01*
X225033Y415778D01*
X224953Y415903D01*
X224934Y415921D01*
X224919Y415943D01*
X224809Y416042D01*
X224702Y416145D01*
X224680Y416159D01*
X224660Y416176D01*
X224530Y416248D01*
X224403Y416324D01*
X224378Y416332D01*
X224355Y416345D01*
X224212Y416385D01*
X224071Y416430D01*
X224045Y416432D01*
X224020Y416440D01*
X223776Y416459D01*
X21765Y416459D01*
X21665Y416448D01*
X21565Y416446D01*
X21493Y416428D01*
X21419Y416419D01*
X21325Y416386D01*
X21227Y416361D01*
X21161Y416327D01*
X21091Y416302D01*
X21007Y416247D01*
X20917Y416201D01*
X20861Y416153D01*
X20798Y416113D01*
X20728Y416041D01*
X20652Y415976D01*
X20608Y415916D01*
X20556Y415862D01*
X20504Y415776D01*
X20445Y415695D01*
X20415Y415627D01*
X20377Y415563D01*
X20346Y415467D01*
X20307Y415375D01*
X20294Y415302D01*
X20271Y415231D01*
X20263Y415131D01*
X20245Y415032D01*
X20249Y414958D01*
X20243Y414884D01*
X20258Y414784D01*
X20263Y414684D01*
X20284Y414613D01*
X20295Y414539D01*
X20332Y414446D01*
X20359Y414349D01*
X20396Y414284D01*
X20423Y414215D01*
X20481Y414133D01*
X20530Y414045D01*
X20595Y413969D01*
X20622Y413929D01*
X20649Y413905D01*
X20688Y413859D01*
X21960Y412587D01*
X23623Y408573D01*
X23623Y404227D01*
X21960Y400213D01*
X18887Y397140D01*
X14873Y395477D01*
X10527Y395477D01*
X6513Y397140D01*
X5054Y398598D01*
X4978Y398659D01*
X4907Y398728D01*
X4842Y398767D01*
X4781Y398815D01*
X4693Y398857D01*
X4609Y398908D01*
X4536Y398931D01*
X4466Y398964D01*
X4371Y398985D01*
X4277Y399015D01*
X4200Y399021D01*
X4126Y399037D01*
X4028Y399036D01*
X3930Y399044D01*
X3854Y399033D01*
X3777Y399031D01*
X3682Y399007D01*
X3585Y398993D01*
X3514Y398965D01*
X3439Y398946D01*
X3352Y398901D01*
X3261Y398865D01*
X3198Y398822D01*
X3129Y398787D01*
X3055Y398723D01*
X2974Y398667D01*
X2922Y398611D01*
X2864Y398561D01*
X2806Y398482D01*
X2740Y398409D01*
X2702Y398342D01*
X2657Y398281D01*
X2618Y398191D01*
X2570Y398105D01*
X2549Y398031D01*
X2519Y397961D01*
X2501Y397864D01*
X2475Y397770D01*
X2466Y397666D01*
X2457Y397618D01*
X2459Y397583D01*
X2454Y397526D01*
X2431Y389860D01*
X2443Y389758D01*
X2445Y389656D01*
X2462Y389586D01*
X2470Y389514D01*
X2505Y389417D01*
X2530Y389318D01*
X2563Y389254D01*
X2587Y389186D01*
X2642Y389099D01*
X2689Y389008D01*
X2736Y388953D01*
X2775Y388892D01*
X2848Y388821D01*
X2915Y388742D01*
X2973Y388700D01*
X3025Y388649D01*
X3113Y388596D01*
X3195Y388535D01*
X3261Y388507D01*
X3323Y388470D01*
X3421Y388438D01*
X3515Y388397D01*
X3586Y388385D01*
X3655Y388362D01*
X3757Y388354D01*
X3858Y388336D01*
X3930Y388339D01*
X4002Y388333D01*
X4104Y388348D01*
X4206Y388354D01*
X4276Y388374D01*
X4347Y388384D01*
X4443Y388422D01*
X4541Y388450D01*
X4604Y388485D01*
X4671Y388512D01*
X4756Y388570D01*
X4845Y388620D01*
X4919Y388683D01*
X4958Y388710D01*
X4983Y388737D01*
X5032Y388779D01*
X6513Y390260D01*
X10527Y391923D01*
X14873Y391923D01*
X18887Y390260D01*
X21960Y387187D01*
X23623Y383173D01*
X23623Y378827D01*
X21960Y374813D01*
X18887Y371740D01*
X14873Y370077D01*
X10527Y370077D01*
X6513Y371740D01*
X4979Y373274D01*
X4902Y373335D01*
X4832Y373403D01*
X4766Y373443D01*
X4706Y373490D01*
X4617Y373532D01*
X4533Y373583D01*
X4460Y373607D01*
X4391Y373639D01*
X4295Y373660D01*
X4202Y373690D01*
X4125Y373697D01*
X4050Y373713D01*
X3952Y373711D01*
X3854Y373719D01*
X3778Y373708D01*
X3702Y373707D01*
X3607Y373683D01*
X3510Y373669D01*
X3438Y373640D01*
X3364Y373622D01*
X3277Y373577D01*
X3185Y373541D01*
X3122Y373497D01*
X3054Y373462D01*
X2979Y373399D01*
X2899Y373343D01*
X2847Y373286D01*
X2789Y373236D01*
X2730Y373157D01*
X2664Y373085D01*
X2627Y373018D01*
X2581Y372956D01*
X2543Y372866D01*
X2495Y372780D01*
X2474Y372706D01*
X2443Y372636D01*
X2426Y372539D01*
X2399Y372445D01*
X2390Y372341D01*
X2382Y372293D01*
X2384Y372259D01*
X2379Y372201D01*
X2355Y364385D01*
X2367Y364282D01*
X2369Y364180D01*
X2386Y364110D01*
X2394Y364038D01*
X2429Y363941D01*
X2454Y363842D01*
X2487Y363778D01*
X2511Y363710D01*
X2566Y363623D01*
X2613Y363532D01*
X2660Y363477D01*
X2699Y363416D01*
X2773Y363345D01*
X2839Y363267D01*
X2897Y363224D01*
X2949Y363173D01*
X3037Y363121D01*
X3119Y363059D01*
X3186Y363031D01*
X3247Y362994D01*
X3345Y362962D01*
X3439Y362921D01*
X3510Y362909D01*
X3579Y362887D01*
X3681Y362878D01*
X3782Y362860D01*
X3855Y362864D01*
X3926Y362858D01*
X4028Y362872D01*
X4131Y362878D01*
X4200Y362898D01*
X4271Y362908D01*
X4367Y362946D01*
X4465Y362974D01*
X4528Y363009D01*
X4595Y363036D01*
X4680Y363094D01*
X4770Y363144D01*
X4843Y363207D01*
X4882Y363234D01*
X4907Y363261D01*
X4956Y363303D01*
X6513Y364860D01*
X10527Y366523D01*
X14873Y366523D01*
X18887Y364860D01*
X21960Y361787D01*
X23623Y357773D01*
X23623Y353427D01*
X21960Y349413D01*
X18887Y346340D01*
X15088Y344767D01*
X14996Y344715D01*
X14900Y344673D01*
X14844Y344631D01*
X14784Y344597D01*
X14706Y344526D01*
X14622Y344463D01*
X14577Y344410D01*
X14525Y344363D01*
X14465Y344276D01*
X14398Y344196D01*
X14367Y344134D01*
X14327Y344076D01*
X14289Y343978D01*
X14241Y343885D01*
X14225Y343817D01*
X14199Y343752D01*
X14184Y343648D01*
X14159Y343546D01*
X14159Y343476D01*
X14149Y343407D01*
X14157Y343302D01*
X14156Y343197D01*
X14172Y343129D01*
X14177Y343060D01*
X14210Y342960D01*
X14233Y342857D01*
X14263Y342795D01*
X14285Y342728D01*
X14339Y342638D01*
X14385Y342544D01*
X14428Y342489D01*
X14464Y342430D01*
X14538Y342354D01*
X14604Y342273D01*
X14658Y342230D01*
X14707Y342180D01*
X14796Y342123D01*
X14879Y342058D01*
X14942Y342029D01*
X15000Y341992D01*
X15099Y341956D01*
X15195Y341912D01*
X15285Y341890D01*
X15329Y341875D01*
X15367Y341871D01*
X15433Y341855D01*
X15496Y341845D01*
X17283Y341264D01*
X18958Y340411D01*
X20478Y339306D01*
X21806Y337978D01*
X22911Y336457D01*
X23764Y334783D01*
X24345Y332996D01*
X24385Y332739D01*
X13716Y332739D01*
X13690Y332736D01*
X13664Y332738D01*
X13517Y332716D01*
X13370Y332699D01*
X13345Y332691D01*
X13319Y332687D01*
X13182Y332632D01*
X13042Y332582D01*
X13020Y332568D01*
X12995Y332558D01*
X12874Y332473D01*
X12749Y332393D01*
X12731Y332374D01*
X12709Y332359D01*
X12610Y332249D01*
X12507Y332142D01*
X12493Y332120D01*
X12476Y332100D01*
X12404Y331970D01*
X12328Y331843D01*
X12320Y331818D01*
X12307Y331795D01*
X12267Y331652D01*
X12222Y331511D01*
X12220Y331485D01*
X12213Y331460D01*
X12193Y331216D01*
X12193Y329184D01*
X12196Y329158D01*
X12194Y329132D01*
X12216Y328985D01*
X12233Y328838D01*
X12242Y328813D01*
X12246Y328787D01*
X12300Y328649D01*
X12350Y328510D01*
X12365Y328488D01*
X12374Y328463D01*
X12459Y328342D01*
X12539Y328217D01*
X12558Y328199D01*
X12573Y328177D01*
X12683Y328078D01*
X12790Y327975D01*
X12813Y327961D01*
X12832Y327944D01*
X12962Y327872D01*
X13089Y327796D01*
X13114Y327788D01*
X13137Y327775D01*
X13280Y327735D01*
X13421Y327690D01*
X13447Y327687D01*
X13472Y327680D01*
X13716Y327661D01*
X24385Y327661D01*
X24345Y327404D01*
X23764Y325617D01*
X22911Y323943D01*
X21806Y322422D01*
X20478Y321094D01*
X18957Y319989D01*
X17283Y319136D01*
X15496Y318555D01*
X15433Y318545D01*
X15331Y318517D01*
X15228Y318498D01*
X15164Y318470D01*
X15097Y318452D01*
X15005Y318401D01*
X14908Y318359D01*
X14852Y318318D01*
X14791Y318284D01*
X14713Y318214D01*
X14629Y318151D01*
X14584Y318098D01*
X14532Y318052D01*
X14471Y317966D01*
X14403Y317885D01*
X14372Y317823D01*
X14332Y317766D01*
X14293Y317669D01*
X14245Y317575D01*
X14228Y317508D01*
X14202Y317443D01*
X14186Y317339D01*
X14160Y317237D01*
X14159Y317167D01*
X14149Y317099D01*
X14157Y316994D01*
X14155Y316888D01*
X14170Y316820D01*
X14176Y316751D01*
X14207Y316651D01*
X14230Y316548D01*
X14260Y316485D01*
X14281Y316419D01*
X14334Y316328D01*
X14379Y316233D01*
X14423Y316179D01*
X14458Y316119D01*
X14531Y316043D01*
X14597Y315961D01*
X14651Y315918D01*
X14700Y315867D01*
X14788Y315810D01*
X14870Y315745D01*
X14953Y315703D01*
X14992Y315677D01*
X15028Y315664D01*
X15088Y315633D01*
X18887Y314060D01*
X21960Y310987D01*
X23623Y306973D01*
X23623Y302627D01*
X21960Y298613D01*
X18887Y295540D01*
X14873Y293877D01*
X10527Y293877D01*
X6513Y295540D01*
X4753Y297300D01*
X4676Y297361D01*
X4606Y297429D01*
X4540Y297469D01*
X4480Y297517D01*
X4391Y297559D01*
X4307Y297609D01*
X4234Y297633D01*
X4165Y297666D01*
X4069Y297686D01*
X3975Y297716D01*
X3899Y297723D01*
X3824Y297739D01*
X3726Y297737D01*
X3628Y297745D01*
X3552Y297734D01*
X3476Y297733D01*
X3381Y297709D01*
X3283Y297695D01*
X3212Y297667D01*
X3138Y297648D01*
X3051Y297603D01*
X2959Y297567D01*
X2896Y297523D01*
X2828Y297488D01*
X2753Y297425D01*
X2672Y297369D01*
X2621Y297312D01*
X2562Y297262D01*
X2504Y297184D01*
X2438Y297111D01*
X2401Y297044D01*
X2355Y296982D01*
X2316Y296892D01*
X2269Y296806D01*
X2248Y296732D01*
X2217Y296662D01*
X2200Y296566D01*
X2173Y296471D01*
X2164Y296367D01*
X2156Y296319D01*
X2157Y296285D01*
X2153Y296227D01*
X2128Y287957D01*
X2139Y287855D01*
X2141Y287752D01*
X2159Y287682D01*
X2167Y287611D01*
X2201Y287514D01*
X2226Y287414D01*
X2259Y287350D01*
X2283Y287282D01*
X2339Y287196D01*
X2386Y287105D01*
X2433Y287050D01*
X2472Y286989D01*
X2545Y286917D01*
X2612Y286839D01*
X2670Y286796D01*
X2721Y286746D01*
X2809Y286693D01*
X2892Y286632D01*
X2958Y286603D01*
X3020Y286566D01*
X3118Y286535D01*
X3212Y286494D01*
X3283Y286481D01*
X3352Y286459D01*
X3454Y286450D01*
X3555Y286432D01*
X3627Y286436D01*
X3699Y286430D01*
X3800Y286445D01*
X3903Y286450D01*
X3972Y286470D01*
X4044Y286481D01*
X4139Y286518D01*
X4238Y286547D01*
X4301Y286582D01*
X4368Y286608D01*
X4452Y286667D01*
X4542Y286717D01*
X4616Y286780D01*
X4655Y286806D01*
X4680Y286834D01*
X4728Y286875D01*
X6513Y288660D01*
X10527Y290323D01*
X14873Y290323D01*
X18887Y288660D01*
X21960Y285587D01*
X23623Y281573D01*
X23623Y277227D01*
X21960Y273213D01*
X18887Y270140D01*
X14873Y268477D01*
X10527Y268477D01*
X6513Y270140D01*
X4678Y271975D01*
X4601Y272036D01*
X4530Y272105D01*
X4465Y272144D01*
X4405Y272192D01*
X4316Y272234D01*
X4232Y272285D01*
X4159Y272308D01*
X4089Y272341D01*
X3994Y272362D01*
X3900Y272392D01*
X3824Y272398D01*
X3749Y272414D01*
X3651Y272413D01*
X3553Y272421D01*
X3477Y272410D01*
X3400Y272408D01*
X3305Y272384D01*
X3208Y272370D01*
X3137Y272342D01*
X3062Y272323D01*
X2975Y272278D01*
X2884Y272242D01*
X2821Y272199D01*
X2752Y272164D01*
X2678Y272100D01*
X2597Y272044D01*
X2546Y271988D01*
X2487Y271938D01*
X2429Y271859D01*
X2363Y271786D01*
X2326Y271719D01*
X2280Y271658D01*
X2241Y271567D01*
X2193Y271482D01*
X2172Y271408D01*
X2142Y271338D01*
X2125Y271241D01*
X2098Y271147D01*
X2089Y271043D01*
X2080Y270995D01*
X2082Y270960D01*
X2077Y270903D01*
X2052Y262481D01*
X2064Y262379D01*
X2065Y262276D01*
X2083Y262207D01*
X2091Y262135D01*
X2125Y262038D01*
X2150Y261938D01*
X2183Y261874D01*
X2208Y261806D01*
X2263Y261720D01*
X2310Y261629D01*
X2357Y261574D01*
X2396Y261513D01*
X2469Y261441D01*
X2536Y261363D01*
X2594Y261320D01*
X2646Y261270D01*
X2734Y261217D01*
X2816Y261156D01*
X2882Y261128D01*
X2944Y261090D01*
X3042Y261059D01*
X3136Y261018D01*
X3207Y261005D01*
X3276Y260983D01*
X3378Y260975D01*
X3479Y260956D01*
X3551Y260960D01*
X3623Y260954D01*
X3725Y260969D01*
X3827Y260974D01*
X3897Y260994D01*
X3968Y261005D01*
X4063Y261042D01*
X4162Y261071D01*
X4225Y261106D01*
X4292Y261133D01*
X4377Y261191D01*
X4466Y261241D01*
X4540Y261304D01*
X4579Y261331D01*
X4604Y261358D01*
X4652Y261400D01*
X6513Y263260D01*
X10527Y264923D01*
X14873Y264923D01*
X18887Y263260D01*
X21960Y260187D01*
X23623Y256173D01*
X23623Y251827D01*
X21960Y247813D01*
X18887Y244740D01*
X14873Y243077D01*
X10527Y243077D01*
X6513Y244740D01*
X4602Y246651D01*
X4525Y246712D01*
X4455Y246780D01*
X4389Y246820D01*
X4329Y246867D01*
X4240Y246909D01*
X4156Y246960D01*
X4083Y246984D01*
X4014Y247016D01*
X3918Y247037D01*
X3825Y247067D01*
X3748Y247074D01*
X3673Y247090D01*
X3575Y247088D01*
X3477Y247096D01*
X3402Y247085D01*
X3325Y247084D01*
X3230Y247060D01*
X3133Y247045D01*
X3061Y247017D01*
X2987Y246999D01*
X2900Y246954D01*
X2808Y246918D01*
X2745Y246874D01*
X2677Y246839D01*
X2602Y246776D01*
X2522Y246720D01*
X2470Y246663D01*
X2412Y246613D01*
X2353Y246534D01*
X2287Y246462D01*
X2250Y246395D01*
X2205Y246333D01*
X2166Y246243D01*
X2118Y246157D01*
X2097Y246083D01*
X2067Y246013D01*
X2049Y245916D01*
X2022Y245822D01*
X2014Y245718D01*
X2005Y245670D01*
X2007Y245636D01*
X2002Y245578D01*
X1976Y237005D01*
X1988Y236903D01*
X1990Y236801D01*
X2007Y236731D01*
X2015Y236659D01*
X2049Y236562D01*
X2075Y236463D01*
X2108Y236399D01*
X2132Y236331D01*
X2187Y236244D01*
X2234Y236153D01*
X2281Y236098D01*
X2320Y236037D01*
X2394Y235965D01*
X2460Y235887D01*
X2518Y235845D01*
X2570Y235794D01*
X2658Y235741D01*
X2740Y235680D01*
X2807Y235652D01*
X2868Y235615D01*
X2966Y235583D01*
X3060Y235542D01*
X3131Y235530D01*
X3200Y235507D01*
X3302Y235499D01*
X3403Y235481D01*
X3475Y235484D01*
X3547Y235478D01*
X3649Y235493D01*
X3751Y235499D01*
X3821Y235518D01*
X3892Y235529D01*
X3987Y235567D01*
X4086Y235595D01*
X4149Y235630D01*
X4216Y235657D01*
X4301Y235715D01*
X4390Y235765D01*
X4464Y235828D01*
X4503Y235855D01*
X4528Y235882D01*
X4577Y235924D01*
X6513Y237860D01*
X10527Y239523D01*
X14873Y239523D01*
X18887Y237860D01*
X21960Y234787D01*
X23623Y230773D01*
X23623Y226427D01*
X21960Y222413D01*
X18887Y219340D01*
X14873Y217677D01*
X10527Y217677D01*
X6513Y219340D01*
X4527Y221326D01*
X4450Y221387D01*
X4379Y221456D01*
X4314Y221495D01*
X4254Y221543D01*
X4165Y221585D01*
X4081Y221635D01*
X4008Y221659D01*
X3939Y221692D01*
X3843Y221712D01*
X3749Y221743D01*
X3673Y221749D01*
X3598Y221765D01*
X3500Y221763D01*
X3402Y221772D01*
X3326Y221760D01*
X3250Y221759D01*
X3154Y221735D01*
X3057Y221721D01*
X2986Y221693D01*
X2912Y221674D01*
X2824Y221629D01*
X2733Y221593D01*
X2670Y221550D01*
X2602Y221514D01*
X2527Y221451D01*
X2446Y221395D01*
X2395Y221338D01*
X2336Y221289D01*
X2278Y221210D01*
X2212Y221137D01*
X2175Y221070D01*
X2129Y221008D01*
X2090Y220918D01*
X2043Y220832D01*
X2021Y220759D01*
X1991Y220688D01*
X1974Y220592D01*
X1947Y220497D01*
X1938Y220393D01*
X1929Y220345D01*
X1931Y220311D01*
X1926Y220254D01*
X1900Y211530D01*
X1912Y211427D01*
X1914Y211325D01*
X1931Y211255D01*
X1939Y211183D01*
X1974Y211086D01*
X1999Y210987D01*
X2032Y210923D01*
X2056Y210855D01*
X2111Y210768D01*
X2158Y210677D01*
X2205Y210622D01*
X2244Y210561D01*
X2318Y210490D01*
X2384Y210412D01*
X2442Y210369D01*
X2494Y210318D01*
X2582Y210266D01*
X2664Y210204D01*
X2731Y210176D01*
X2792Y210139D01*
X2890Y210107D01*
X2984Y210066D01*
X3055Y210054D01*
X3124Y210031D01*
X3226Y210023D01*
X3327Y210005D01*
X3400Y210008D01*
X3471Y210002D01*
X3573Y210017D01*
X3676Y210023D01*
X3745Y210043D01*
X3816Y210053D01*
X3912Y210091D01*
X4010Y210119D01*
X4073Y210154D01*
X4140Y210181D01*
X4225Y210239D01*
X4315Y210289D01*
X4388Y210352D01*
X4427Y210379D01*
X4452Y210406D01*
X4501Y210448D01*
X6513Y212460D01*
X10527Y214123D01*
X14873Y214123D01*
X18887Y212460D01*
X21960Y209387D01*
X23623Y205373D01*
X23623Y201027D01*
X21960Y197013D01*
X18887Y193940D01*
X14873Y192277D01*
X10527Y192277D01*
X6513Y193940D01*
X4451Y196002D01*
X4375Y196063D01*
X4304Y196131D01*
X4238Y196171D01*
X4178Y196218D01*
X4090Y196260D01*
X4006Y196311D01*
X3933Y196334D01*
X3863Y196367D01*
X3767Y196388D01*
X3674Y196418D01*
X3597Y196424D01*
X3523Y196440D01*
X3425Y196439D01*
X3327Y196447D01*
X3251Y196436D01*
X3174Y196434D01*
X3079Y196411D01*
X2982Y196396D01*
X2911Y196368D01*
X2836Y196349D01*
X2749Y196305D01*
X2658Y196269D01*
X2594Y196225D01*
X2526Y196190D01*
X2452Y196126D01*
X2371Y196070D01*
X2319Y196014D01*
X2261Y195964D01*
X2203Y195885D01*
X2137Y195812D01*
X2099Y195745D01*
X2054Y195684D01*
X2015Y195594D01*
X1967Y195508D01*
X1946Y195434D01*
X1916Y195364D01*
X1898Y195267D01*
X1871Y195173D01*
X1863Y195069D01*
X1854Y195021D01*
X1856Y194986D01*
X1851Y194929D01*
X1825Y186054D01*
X1836Y185951D01*
X1838Y185849D01*
X1855Y185779D01*
X1863Y185707D01*
X1898Y185611D01*
X1923Y185511D01*
X1956Y185447D01*
X1980Y185379D01*
X2035Y185292D01*
X2082Y185201D01*
X2129Y185146D01*
X2168Y185086D01*
X2242Y185014D01*
X2308Y184936D01*
X2366Y184893D01*
X2418Y184843D01*
X2506Y184790D01*
X2589Y184729D01*
X2655Y184700D01*
X2717Y184663D01*
X2814Y184631D01*
X2909Y184591D01*
X2980Y184578D01*
X3048Y184556D01*
X3151Y184547D01*
X3252Y184529D01*
X3324Y184533D01*
X3396Y184527D01*
X3497Y184542D01*
X3600Y184547D01*
X3669Y184567D01*
X3740Y184577D01*
X3836Y184615D01*
X3935Y184643D01*
X3997Y184679D01*
X4065Y184705D01*
X4149Y184763D01*
X4239Y184814D01*
X4312Y184876D01*
X4351Y184903D01*
X4376Y184931D01*
X4425Y184972D01*
X6513Y187060D01*
X10527Y188723D01*
X14873Y188723D01*
X18887Y187060D01*
X21960Y183987D01*
X23623Y179973D01*
X23623Y175627D01*
X21960Y171613D01*
X18887Y168540D01*
X14873Y166877D01*
X10527Y166877D01*
X6513Y168540D01*
X4376Y170677D01*
X4299Y170738D01*
X4229Y170806D01*
X4163Y170846D01*
X4103Y170894D01*
X4014Y170935D01*
X3930Y170986D01*
X3857Y171010D01*
X3788Y171042D01*
X3692Y171063D01*
X3599Y171093D01*
X3522Y171100D01*
X3447Y171116D01*
X3349Y171114D01*
X3251Y171122D01*
X3175Y171111D01*
X3099Y171110D01*
X3004Y171086D01*
X2906Y171072D01*
X2835Y171044D01*
X2761Y171025D01*
X2673Y170980D01*
X2582Y170944D01*
X2519Y170900D01*
X2451Y170865D01*
X2376Y170802D01*
X2295Y170746D01*
X2244Y170689D01*
X2186Y170639D01*
X2127Y170560D01*
X2061Y170488D01*
X2024Y170421D01*
X1978Y170359D01*
X1939Y170269D01*
X1892Y170183D01*
X1871Y170109D01*
X1840Y170039D01*
X1823Y169942D01*
X1796Y169848D01*
X1787Y169744D01*
X1779Y169696D01*
X1780Y169662D01*
X1776Y169604D01*
X1749Y160578D01*
X1760Y160476D01*
X1762Y160373D01*
X1780Y160303D01*
X1788Y160231D01*
X1822Y160135D01*
X1847Y160035D01*
X1880Y159971D01*
X1904Y159903D01*
X1960Y159817D01*
X2007Y159725D01*
X2053Y159670D01*
X2092Y159610D01*
X2166Y159538D01*
X2233Y159460D01*
X2290Y159417D01*
X2342Y159367D01*
X2430Y159314D01*
X2513Y159253D01*
X2579Y159224D01*
X2641Y159187D01*
X2739Y159155D01*
X2833Y159115D01*
X2904Y159102D01*
X2972Y159080D01*
X3075Y159071D01*
X3176Y159053D01*
X3248Y159057D01*
X3320Y159051D01*
X3421Y159066D01*
X3524Y159071D01*
X3593Y159091D01*
X3665Y159101D01*
X3760Y159139D01*
X3859Y159168D01*
X3922Y159203D01*
X3989Y159229D01*
X4073Y159288D01*
X4163Y159338D01*
X4236Y159400D01*
X4276Y159427D01*
X4301Y159455D01*
X4349Y159496D01*
X6513Y161660D01*
X10527Y163323D01*
X14873Y163323D01*
X18887Y161660D01*
X21960Y158587D01*
X23623Y154573D01*
X23623Y150227D01*
X21960Y146213D01*
X18887Y143140D01*
X14873Y141477D01*
X10527Y141477D01*
X6513Y143140D01*
X4301Y145352D01*
X4224Y145413D01*
X4153Y145482D01*
X4088Y145521D01*
X4028Y145569D01*
X3939Y145611D01*
X3855Y145662D01*
X3782Y145685D01*
X3713Y145718D01*
X3617Y145738D01*
X3523Y145769D01*
X3447Y145775D01*
X3372Y145791D01*
X3274Y145790D01*
X3176Y145798D01*
X3100Y145787D01*
X3023Y145785D01*
X2928Y145761D01*
X2831Y145747D01*
X2760Y145719D01*
X2685Y145700D01*
X2598Y145655D01*
X2507Y145619D01*
X2444Y145576D01*
X2376Y145541D01*
X2301Y145477D01*
X2220Y145421D01*
X2169Y145365D01*
X2110Y145315D01*
X2052Y145236D01*
X1986Y145163D01*
X1949Y145096D01*
X1903Y145035D01*
X1864Y144944D01*
X1816Y144859D01*
X1795Y144785D01*
X1765Y144715D01*
X1748Y144618D01*
X1721Y144524D01*
X1712Y144420D01*
X1703Y144371D01*
X1705Y144337D01*
X1700Y144280D01*
X1673Y135102D01*
X1684Y135000D01*
X1686Y134897D01*
X1704Y134827D01*
X1712Y134756D01*
X1746Y134659D01*
X1771Y134559D01*
X1804Y134495D01*
X1828Y134427D01*
X1884Y134341D01*
X1931Y134249D01*
X1978Y134195D01*
X2016Y134134D01*
X2090Y134062D01*
X2157Y133984D01*
X2215Y133941D01*
X2266Y133891D01*
X2354Y133838D01*
X2437Y133777D01*
X2503Y133748D01*
X2565Y133711D01*
X2663Y133679D01*
X2757Y133639D01*
X2828Y133626D01*
X2897Y133604D01*
X2999Y133595D01*
X3100Y133577D01*
X3172Y133581D01*
X3244Y133575D01*
X3345Y133590D01*
X3448Y133595D01*
X3517Y133615D01*
X3589Y133626D01*
X3684Y133663D01*
X3783Y133692D01*
X3846Y133727D01*
X3913Y133753D01*
X3997Y133812D01*
X4087Y133862D01*
X4161Y133924D01*
X4200Y133951D01*
X4225Y133979D01*
X4273Y134020D01*
X6513Y136260D01*
X10527Y137923D01*
X14873Y137923D01*
X18887Y136260D01*
X21960Y133187D01*
X23623Y129173D01*
X23623Y124827D01*
X21960Y120813D01*
X18887Y117740D01*
X14873Y116077D01*
X10527Y116077D01*
X6513Y117740D01*
X4225Y120028D01*
X4148Y120089D01*
X4078Y120157D01*
X4012Y120197D01*
X3952Y120244D01*
X3863Y120286D01*
X3779Y120337D01*
X3706Y120360D01*
X3637Y120393D01*
X3541Y120414D01*
X3448Y120444D01*
X3371Y120450D01*
X3296Y120467D01*
X3198Y120465D01*
X3100Y120473D01*
X3025Y120462D01*
X2948Y120461D01*
X2853Y120437D01*
X2756Y120422D01*
X2684Y120394D01*
X2610Y120376D01*
X2523Y120331D01*
X2431Y120295D01*
X2368Y120251D01*
X2300Y120216D01*
X2225Y120152D01*
X2145Y120097D01*
X2093Y120040D01*
X2035Y119990D01*
X1976Y119911D01*
X1910Y119839D01*
X1873Y119772D01*
X1828Y119710D01*
X1789Y119620D01*
X1741Y119534D01*
X1720Y119460D01*
X1690Y119390D01*
X1672Y119293D01*
X1645Y119199D01*
X1637Y119095D01*
X1628Y119047D01*
X1630Y119013D01*
X1625Y118955D01*
X1597Y109626D01*
X1609Y109524D01*
X1610Y109421D01*
X1628Y109352D01*
X1636Y109280D01*
X1670Y109183D01*
X1695Y109083D01*
X1728Y109019D01*
X1752Y108951D01*
X1808Y108865D01*
X1855Y108774D01*
X1902Y108719D01*
X1941Y108658D01*
X2014Y108586D01*
X2081Y108508D01*
X2139Y108465D01*
X2191Y108415D01*
X2278Y108362D01*
X2361Y108301D01*
X2427Y108272D01*
X2489Y108235D01*
X2587Y108204D01*
X2681Y108163D01*
X2752Y108150D01*
X2821Y108128D01*
X2923Y108120D01*
X3024Y108101D01*
X3096Y108105D01*
X3168Y108099D01*
X3270Y108114D01*
X3372Y108119D01*
X3441Y108139D01*
X3513Y108150D01*
X3608Y108187D01*
X3707Y108216D01*
X3770Y108251D01*
X3837Y108278D01*
X3922Y108336D01*
X4011Y108386D01*
X4085Y108449D01*
X4124Y108476D01*
X4149Y108503D01*
X4197Y108545D01*
X6513Y110860D01*
X10527Y112523D01*
X14873Y112523D01*
X18887Y110860D01*
X21960Y107787D01*
X23623Y103773D01*
X23623Y99427D01*
X21960Y95413D01*
X18887Y92340D01*
X14873Y90677D01*
X10527Y90677D01*
X6513Y92340D01*
X4150Y94703D01*
X4073Y94764D01*
X4003Y94833D01*
X3937Y94872D01*
X3877Y94920D01*
X3788Y94962D01*
X3704Y95012D01*
X3631Y95036D01*
X3562Y95069D01*
X3466Y95089D01*
X3372Y95120D01*
X3296Y95126D01*
X3221Y95142D01*
X3123Y95140D01*
X3025Y95149D01*
X2949Y95137D01*
X2873Y95136D01*
X2777Y95112D01*
X2680Y95098D01*
X2609Y95070D01*
X2535Y95051D01*
X2447Y95006D01*
X2356Y94970D01*
X2293Y94926D01*
X2225Y94891D01*
X2150Y94828D01*
X2069Y94772D01*
X2018Y94715D01*
X1959Y94666D01*
X1901Y94587D01*
X1835Y94514D01*
X1798Y94447D01*
X1752Y94385D01*
X1713Y94295D01*
X1666Y94209D01*
X1645Y94136D01*
X1614Y94065D01*
X1597Y93969D01*
X1570Y93874D01*
X1561Y93770D01*
X1553Y93722D01*
X1554Y93688D01*
X1549Y93631D01*
X1521Y84150D01*
X1533Y84048D01*
X1534Y83946D01*
X1552Y83876D01*
X1560Y83804D01*
X1594Y83707D01*
X1619Y83608D01*
X1653Y83543D01*
X1677Y83476D01*
X1732Y83389D01*
X1779Y83298D01*
X1826Y83243D01*
X1865Y83182D01*
X1939Y83110D01*
X2005Y83032D01*
X2063Y82990D01*
X2115Y82939D01*
X2203Y82886D01*
X2285Y82825D01*
X2351Y82797D01*
X2413Y82759D01*
X2511Y82728D01*
X2605Y82687D01*
X2676Y82674D01*
X2745Y82652D01*
X2847Y82644D01*
X2948Y82626D01*
X3020Y82629D01*
X3092Y82623D01*
X3194Y82638D01*
X3296Y82643D01*
X3366Y82663D01*
X3437Y82674D01*
X3532Y82712D01*
X3631Y82740D01*
X3694Y82775D01*
X3761Y82802D01*
X3846Y82860D01*
X3935Y82910D01*
X4009Y82973D01*
X4048Y83000D01*
X4073Y83027D01*
X4122Y83069D01*
X6513Y85460D01*
X10527Y87123D01*
X14873Y87123D01*
X18887Y85460D01*
X21960Y82387D01*
X23623Y78373D01*
X23623Y74027D01*
X21960Y70013D01*
X18887Y66940D01*
X14873Y65277D01*
X10527Y65277D01*
X6513Y66940D01*
X4074Y69378D01*
X3998Y69439D01*
X3927Y69508D01*
X3862Y69547D01*
X3801Y69595D01*
X3713Y69637D01*
X3629Y69688D01*
X3556Y69711D01*
X3486Y69744D01*
X3390Y69765D01*
X3297Y69795D01*
X3220Y69801D01*
X3146Y69817D01*
X3048Y69816D01*
X2950Y69824D01*
X2874Y69813D01*
X2797Y69811D01*
X2702Y69787D01*
X2605Y69773D01*
X2534Y69745D01*
X2459Y69726D01*
X2372Y69681D01*
X2281Y69645D01*
X2217Y69602D01*
X2149Y69567D01*
X2075Y69503D01*
X1994Y69447D01*
X1942Y69391D01*
X1884Y69341D01*
X1826Y69262D01*
X1760Y69189D01*
X1722Y69122D01*
X1677Y69061D01*
X1638Y68971D01*
X1590Y68885D01*
X1569Y68811D01*
X1539Y68741D01*
X1521Y68644D01*
X1494Y68550D01*
X1486Y68446D01*
X1477Y68398D01*
X1479Y68363D01*
X1474Y68306D01*
X1445Y58674D01*
X1457Y58572D01*
X1459Y58470D01*
X1476Y58400D01*
X1484Y58328D01*
X1519Y58231D01*
X1544Y58132D01*
X1577Y58068D01*
X1601Y58000D01*
X1656Y57913D01*
X1703Y57822D01*
X1750Y57767D01*
X1789Y57706D01*
X1863Y57635D01*
X1929Y57557D01*
X1987Y57514D01*
X2039Y57463D01*
X2127Y57410D01*
X2209Y57349D01*
X2276Y57321D01*
X2337Y57284D01*
X2435Y57252D01*
X2529Y57211D01*
X2600Y57199D01*
X2669Y57176D01*
X2771Y57168D01*
X2872Y57150D01*
X2945Y57153D01*
X3016Y57147D01*
X3118Y57162D01*
X3220Y57168D01*
X3290Y57188D01*
X3361Y57198D01*
X3457Y57236D01*
X3555Y57264D01*
X3618Y57299D01*
X3685Y57326D01*
X3770Y57384D01*
X3860Y57434D01*
X3933Y57497D01*
X3972Y57524D01*
X3997Y57551D01*
X4046Y57593D01*
X6513Y60060D01*
X10527Y61723D01*
X14873Y61723D01*
X18887Y60060D01*
X21960Y56987D01*
X23623Y52973D01*
X23623Y48627D01*
X21960Y44613D01*
X18887Y41540D01*
X14873Y39877D01*
X10527Y39877D01*
X6513Y41540D01*
X3999Y44054D01*
X3922Y44115D01*
X3852Y44183D01*
X3786Y44223D01*
X3726Y44271D01*
X3637Y44312D01*
X3553Y44363D01*
X3480Y44387D01*
X3411Y44419D01*
X3315Y44440D01*
X3222Y44470D01*
X3145Y44477D01*
X3070Y44493D01*
X2972Y44491D01*
X2874Y44499D01*
X2798Y44488D01*
X2722Y44487D01*
X2627Y44463D01*
X2529Y44449D01*
X2458Y44421D01*
X2384Y44402D01*
X2297Y44357D01*
X2205Y44321D01*
X2142Y44277D01*
X2074Y44242D01*
X1999Y44179D01*
X1918Y44123D01*
X1867Y44066D01*
X1809Y44016D01*
X1750Y43937D01*
X1684Y43865D01*
X1647Y43798D01*
X1601Y43736D01*
X1563Y43646D01*
X1515Y43560D01*
X1494Y43486D01*
X1463Y43416D01*
X1446Y43319D01*
X1419Y43225D01*
X1410Y43121D01*
X1402Y43073D01*
X1404Y43039D01*
X1399Y42981D01*
X1370Y33199D01*
X1381Y33096D01*
X1383Y32994D01*
X1400Y32924D01*
X1408Y32852D01*
X1443Y32756D01*
X1468Y32656D01*
X1501Y32592D01*
X1525Y32524D01*
X1580Y32437D01*
X1627Y32346D01*
X1674Y32291D01*
X1713Y32230D01*
X1787Y32159D01*
X1853Y32081D01*
X1911Y32038D01*
X1963Y31988D01*
X2051Y31935D01*
X2134Y31874D01*
X2200Y31845D01*
X2262Y31808D01*
X2359Y31776D01*
X2454Y31736D01*
X2524Y31723D01*
X2593Y31701D01*
X2696Y31692D01*
X2797Y31674D01*
X2869Y31678D01*
X2941Y31672D01*
X3042Y31687D01*
X3145Y31692D01*
X3214Y31712D01*
X3285Y31722D01*
X3381Y31760D01*
X3480Y31788D01*
X3543Y31824D01*
X3610Y31850D01*
X3694Y31908D01*
X3784Y31958D01*
X3857Y32021D01*
X3896Y32048D01*
X3921Y32076D01*
X3970Y32117D01*
X6513Y34660D01*
X10527Y36323D01*
X14873Y36323D01*
X18887Y34660D01*
X21960Y31587D01*
X23623Y27573D01*
X23623Y23227D01*
X21960Y19213D01*
X18887Y16140D01*
X14873Y14477D01*
X10527Y14477D01*
X6513Y16140D01*
X3924Y18729D01*
X3847Y18790D01*
X3776Y18859D01*
X3711Y18898D01*
X3651Y18946D01*
X3562Y18988D01*
X3478Y19038D01*
X3405Y19062D01*
X3336Y19095D01*
X3240Y19115D01*
X3146Y19146D01*
X3070Y19152D01*
X2995Y19168D01*
X2897Y19166D01*
X2799Y19175D01*
X2723Y19164D01*
X2646Y19162D01*
X2551Y19138D01*
X2454Y19124D01*
X2383Y19096D01*
X2308Y19077D01*
X2221Y19032D01*
X2130Y18996D01*
X2067Y18953D01*
X1999Y18918D01*
X1924Y18854D01*
X1843Y18798D01*
X1792Y18741D01*
X1733Y18692D01*
X1675Y18613D01*
X1609Y18540D01*
X1572Y18473D01*
X1526Y18411D01*
X1487Y18321D01*
X1439Y18236D01*
X1418Y18162D01*
X1388Y18091D01*
X1371Y17995D01*
X1344Y17900D01*
X1335Y17797D01*
X1326Y17748D01*
X1328Y17714D01*
X1323Y17657D01*
X1306Y11689D01*
X1309Y11660D01*
X1306Y11632D01*
X1328Y11487D01*
X1344Y11342D01*
X1354Y11315D01*
X1358Y11287D01*
X1412Y11152D01*
X1461Y11014D01*
X1476Y10990D01*
X1487Y10963D01*
X1570Y10844D01*
X1649Y10720D01*
X1670Y10700D01*
X1686Y10677D01*
X1794Y10579D01*
X1899Y10477D01*
X1923Y10463D01*
X1945Y10444D01*
X2073Y10373D01*
X2198Y10298D01*
X2225Y10289D01*
X2250Y10275D01*
X2390Y10235D01*
X2529Y10190D01*
X2558Y10188D01*
X2585Y10180D01*
X2829Y10161D01*
X223776Y10161D01*
X223802Y10164D01*
G37*
%LPC*%
G36*
X129539Y379984D02*
X129539Y379984D01*
X129536Y380010D01*
X129538Y380036D01*
X129516Y380183D01*
X129499Y380330D01*
X129491Y380355D01*
X129487Y380381D01*
X129432Y380518D01*
X129382Y380658D01*
X129368Y380680D01*
X129358Y380705D01*
X129273Y380826D01*
X129193Y380951D01*
X129174Y380969D01*
X129159Y380991D01*
X129143Y381005D01*
X129225Y381090D01*
X129239Y381113D01*
X129256Y381132D01*
X129328Y381262D01*
X129404Y381389D01*
X129412Y381414D01*
X129425Y381437D01*
X129465Y381580D01*
X129510Y381721D01*
X129512Y381747D01*
X129520Y381772D01*
X129539Y382016D01*
X129539Y392685D01*
X129796Y392645D01*
X131583Y392064D01*
X133257Y391211D01*
X134778Y390106D01*
X136106Y388778D01*
X137211Y387257D01*
X138064Y385583D01*
X138645Y383796D01*
X138655Y383733D01*
X138683Y383631D01*
X138702Y383528D01*
X138730Y383464D01*
X138748Y383397D01*
X138799Y383305D01*
X138841Y383208D01*
X138882Y383152D01*
X138916Y383091D01*
X138986Y383013D01*
X139049Y382928D01*
X139102Y382884D01*
X139148Y382832D01*
X139235Y382771D01*
X139315Y382703D01*
X139377Y382672D01*
X139434Y382632D01*
X139531Y382593D01*
X139625Y382545D01*
X139692Y382528D01*
X139757Y382502D01*
X139861Y382486D01*
X139963Y382460D01*
X140033Y382459D01*
X140101Y382449D01*
X140206Y382457D01*
X140312Y382455D01*
X140380Y382470D01*
X140449Y382476D01*
X140549Y382507D01*
X140652Y382530D01*
X140715Y382560D01*
X140781Y382581D01*
X140872Y382634D01*
X140967Y382679D01*
X141021Y382723D01*
X141081Y382758D01*
X141157Y382831D01*
X141239Y382897D01*
X141282Y382951D01*
X141333Y383000D01*
X141390Y383088D01*
X141455Y383170D01*
X141497Y383253D01*
X141523Y383292D01*
X141536Y383328D01*
X141567Y383388D01*
X143140Y387187D01*
X146213Y390260D01*
X150227Y391923D01*
X154573Y391923D01*
X158587Y390260D01*
X161660Y387187D01*
X163323Y383173D01*
X163323Y378827D01*
X161660Y374813D01*
X158587Y371740D01*
X154573Y370077D01*
X150227Y370077D01*
X146213Y371740D01*
X143140Y374813D01*
X141567Y378612D01*
X141515Y378704D01*
X141473Y378800D01*
X141431Y378856D01*
X141397Y378917D01*
X141326Y378994D01*
X141263Y379079D01*
X141210Y379123D01*
X141163Y379175D01*
X141077Y379234D01*
X140996Y379302D01*
X140933Y379333D01*
X140876Y379373D01*
X140779Y379411D01*
X140685Y379459D01*
X140617Y379475D01*
X140552Y379501D01*
X140448Y379516D01*
X140346Y379541D01*
X140276Y379541D01*
X140207Y379551D01*
X140102Y379543D01*
X139997Y379544D01*
X139929Y379528D01*
X139860Y379523D01*
X139760Y379490D01*
X139657Y379467D01*
X139595Y379437D01*
X139528Y379415D01*
X139438Y379361D01*
X139344Y379315D01*
X139289Y379272D01*
X139230Y379236D01*
X139154Y379162D01*
X139072Y379096D01*
X139030Y379042D01*
X138980Y378993D01*
X138923Y378904D01*
X138858Y378821D01*
X138829Y378758D01*
X138792Y378700D01*
X138756Y378600D01*
X138712Y378505D01*
X138691Y378415D01*
X138675Y378371D01*
X138671Y378333D01*
X138655Y378267D01*
X138645Y378204D01*
X138064Y376417D01*
X137211Y374743D01*
X136106Y373222D01*
X134778Y371894D01*
X133257Y370789D01*
X131583Y369936D01*
X129796Y369355D01*
X129539Y369315D01*
X129539Y379984D01*
G37*
%LPD*%
%LPC*%
G36*
X29086Y294893D02*
X29086Y294893D01*
X28193Y295786D01*
X28193Y313814D01*
X29086Y314707D01*
X47114Y314707D01*
X48007Y313814D01*
X48007Y295786D01*
X47114Y294893D01*
X29086Y294893D01*
G37*
%LPD*%
%LPC*%
G36*
X188529Y218693D02*
X188529Y218693D01*
X184888Y220201D01*
X182101Y222988D01*
X180593Y226629D01*
X180593Y230571D01*
X182101Y234212D01*
X184888Y236999D01*
X188529Y238507D01*
X192471Y238507D01*
X196112Y236999D01*
X198899Y234212D01*
X200407Y230571D01*
X200407Y226629D01*
X198899Y222988D01*
X196112Y220201D01*
X192471Y218693D01*
X188529Y218693D01*
G37*
%LPD*%
%LPC*%
G36*
X188529Y294893D02*
X188529Y294893D01*
X184888Y296401D01*
X182101Y299188D01*
X180593Y302829D01*
X180593Y306771D01*
X182101Y310412D01*
X184888Y313199D01*
X188529Y314707D01*
X192471Y314707D01*
X196112Y313199D01*
X198899Y310412D01*
X200407Y306771D01*
X200407Y302829D01*
X198899Y299188D01*
X196112Y296401D01*
X192471Y294893D01*
X188529Y294893D01*
G37*
%LPD*%
%LPC*%
G36*
X188529Y15493D02*
X188529Y15493D01*
X184888Y17001D01*
X182101Y19788D01*
X180593Y23429D01*
X180593Y27371D01*
X182101Y31012D01*
X184888Y33799D01*
X188529Y35307D01*
X192471Y35307D01*
X196112Y33799D01*
X198899Y31012D01*
X200407Y27371D01*
X200407Y23429D01*
X198899Y19788D01*
X196112Y17001D01*
X192471Y15493D01*
X188529Y15493D01*
G37*
%LPD*%
%LPC*%
G36*
X36129Y40893D02*
X36129Y40893D01*
X32488Y42401D01*
X29701Y45188D01*
X28193Y48829D01*
X28193Y52771D01*
X29701Y56412D01*
X32488Y59199D01*
X36129Y60707D01*
X40071Y60707D01*
X43712Y59199D01*
X46499Y56412D01*
X48007Y52771D01*
X48007Y48829D01*
X46499Y45188D01*
X43712Y42401D01*
X40071Y40893D01*
X36129Y40893D01*
G37*
%LPD*%
%LPC*%
G36*
X188529Y40893D02*
X188529Y40893D01*
X184888Y42401D01*
X182101Y45188D01*
X180593Y48829D01*
X180593Y52771D01*
X182101Y56412D01*
X184888Y59199D01*
X188529Y60707D01*
X192471Y60707D01*
X196112Y59199D01*
X198899Y56412D01*
X200407Y52771D01*
X200407Y48829D01*
X198899Y45188D01*
X196112Y42401D01*
X192471Y40893D01*
X188529Y40893D01*
G37*
%LPD*%
%LPC*%
G36*
X36129Y269493D02*
X36129Y269493D01*
X32488Y271001D01*
X29701Y273788D01*
X28193Y277429D01*
X28193Y281371D01*
X29701Y285012D01*
X32488Y287799D01*
X36129Y289307D01*
X40071Y289307D01*
X43712Y287799D01*
X46499Y285012D01*
X48007Y281371D01*
X48007Y277429D01*
X46499Y273788D01*
X43712Y271001D01*
X40071Y269493D01*
X36129Y269493D01*
G37*
%LPD*%
%LPC*%
G36*
X36129Y66293D02*
X36129Y66293D01*
X32488Y67801D01*
X29701Y70588D01*
X28193Y74229D01*
X28193Y78171D01*
X29701Y81812D01*
X32488Y84599D01*
X36129Y86107D01*
X40071Y86107D01*
X43712Y84599D01*
X46499Y81812D01*
X48007Y78171D01*
X48007Y74229D01*
X46499Y70588D01*
X43712Y67801D01*
X40071Y66293D01*
X36129Y66293D01*
G37*
%LPD*%
%LPC*%
G36*
X188529Y66293D02*
X188529Y66293D01*
X184888Y67801D01*
X182101Y70588D01*
X180593Y74229D01*
X180593Y78171D01*
X182101Y81812D01*
X184888Y84599D01*
X188529Y86107D01*
X192471Y86107D01*
X196112Y84599D01*
X198899Y81812D01*
X200407Y78171D01*
X200407Y74229D01*
X198899Y70588D01*
X196112Y67801D01*
X192471Y66293D01*
X188529Y66293D01*
G37*
%LPD*%
%LPC*%
G36*
X36129Y91693D02*
X36129Y91693D01*
X32488Y93201D01*
X29701Y95988D01*
X28193Y99629D01*
X28193Y103571D01*
X29701Y107212D01*
X32488Y109999D01*
X36129Y111507D01*
X40071Y111507D01*
X43712Y109999D01*
X46499Y107212D01*
X48007Y103571D01*
X48007Y99629D01*
X46499Y95988D01*
X43712Y93201D01*
X40071Y91693D01*
X36129Y91693D01*
G37*
%LPD*%
%LPC*%
G36*
X188529Y91693D02*
X188529Y91693D01*
X184888Y93201D01*
X182101Y95988D01*
X180593Y99629D01*
X180593Y103571D01*
X182101Y107212D01*
X184888Y109999D01*
X188529Y111507D01*
X192471Y111507D01*
X196112Y109999D01*
X198899Y107212D01*
X200407Y103571D01*
X200407Y99629D01*
X198899Y95988D01*
X196112Y93201D01*
X192471Y91693D01*
X188529Y91693D01*
G37*
%LPD*%
%LPC*%
G36*
X188529Y244093D02*
X188529Y244093D01*
X184888Y245601D01*
X182101Y248388D01*
X180593Y252029D01*
X180593Y255971D01*
X182101Y259612D01*
X184888Y262399D01*
X188529Y263907D01*
X192471Y263907D01*
X196112Y262399D01*
X198899Y259612D01*
X200407Y255971D01*
X200407Y252029D01*
X198899Y248388D01*
X196112Y245601D01*
X192471Y244093D01*
X188529Y244093D01*
G37*
%LPD*%
%LPC*%
G36*
X36129Y117093D02*
X36129Y117093D01*
X32488Y118601D01*
X29701Y121388D01*
X28193Y125029D01*
X28193Y128971D01*
X29701Y132612D01*
X32488Y135399D01*
X36129Y136907D01*
X40071Y136907D01*
X43712Y135399D01*
X46499Y132612D01*
X48007Y128971D01*
X48007Y125029D01*
X46499Y121388D01*
X43712Y118601D01*
X40071Y117093D01*
X36129Y117093D01*
G37*
%LPD*%
%LPC*%
G36*
X188529Y117093D02*
X188529Y117093D01*
X184888Y118601D01*
X182101Y121388D01*
X180593Y125029D01*
X180593Y128971D01*
X182101Y132612D01*
X184888Y135399D01*
X188529Y136907D01*
X192471Y136907D01*
X196112Y135399D01*
X198899Y132612D01*
X200407Y128971D01*
X200407Y125029D01*
X198899Y121388D01*
X196112Y118601D01*
X192471Y117093D01*
X188529Y117093D01*
G37*
%LPD*%
%LPC*%
G36*
X36129Y142493D02*
X36129Y142493D01*
X32488Y144001D01*
X29701Y146788D01*
X28193Y150429D01*
X28193Y154371D01*
X29701Y158012D01*
X32488Y160799D01*
X36129Y162307D01*
X40071Y162307D01*
X43712Y160799D01*
X46499Y158012D01*
X48007Y154371D01*
X48007Y150429D01*
X46499Y146788D01*
X43712Y144001D01*
X40071Y142493D01*
X36129Y142493D01*
G37*
%LPD*%
%LPC*%
G36*
X188529Y142493D02*
X188529Y142493D01*
X184888Y144001D01*
X182101Y146788D01*
X180593Y150429D01*
X180593Y154371D01*
X182101Y158012D01*
X184888Y160799D01*
X188529Y162307D01*
X192471Y162307D01*
X196112Y160799D01*
X198899Y158012D01*
X200407Y154371D01*
X200407Y150429D01*
X198899Y146788D01*
X196112Y144001D01*
X192471Y142493D01*
X188529Y142493D01*
G37*
%LPD*%
%LPC*%
G36*
X36129Y167893D02*
X36129Y167893D01*
X32488Y169401D01*
X29701Y172188D01*
X28193Y175829D01*
X28193Y179771D01*
X29701Y183412D01*
X32488Y186199D01*
X36129Y187707D01*
X40071Y187707D01*
X43712Y186199D01*
X46499Y183412D01*
X48007Y179771D01*
X48007Y175829D01*
X46499Y172188D01*
X43712Y169401D01*
X40071Y167893D01*
X36129Y167893D01*
G37*
%LPD*%
%LPC*%
G36*
X188529Y167893D02*
X188529Y167893D01*
X184888Y169401D01*
X182101Y172188D01*
X180593Y175829D01*
X180593Y179771D01*
X182101Y183412D01*
X184888Y186199D01*
X188529Y187707D01*
X192471Y187707D01*
X196112Y186199D01*
X198899Y183412D01*
X200407Y179771D01*
X200407Y175829D01*
X198899Y172188D01*
X196112Y169401D01*
X192471Y167893D01*
X188529Y167893D01*
G37*
%LPD*%
%LPC*%
G36*
X36129Y15493D02*
X36129Y15493D01*
X32488Y17001D01*
X29701Y19788D01*
X28193Y23429D01*
X28193Y27371D01*
X29701Y31012D01*
X32488Y33799D01*
X36129Y35307D01*
X40071Y35307D01*
X43712Y33799D01*
X46499Y31012D01*
X48007Y27371D01*
X48007Y23429D01*
X46499Y19788D01*
X43712Y17001D01*
X40071Y15493D01*
X36129Y15493D01*
G37*
%LPD*%
%LPC*%
G36*
X188529Y193293D02*
X188529Y193293D01*
X184888Y194801D01*
X182101Y197588D01*
X180593Y201229D01*
X180593Y205171D01*
X182101Y208812D01*
X184888Y211599D01*
X188529Y213107D01*
X192471Y213107D01*
X196112Y211599D01*
X198899Y208812D01*
X200407Y205171D01*
X200407Y201229D01*
X198899Y197588D01*
X196112Y194801D01*
X192471Y193293D01*
X188529Y193293D01*
G37*
%LPD*%
%LPC*%
G36*
X36129Y193293D02*
X36129Y193293D01*
X32488Y194801D01*
X29701Y197588D01*
X28193Y201229D01*
X28193Y205171D01*
X29701Y208812D01*
X32488Y211599D01*
X36129Y213107D01*
X40071Y213107D01*
X43712Y211599D01*
X46499Y208812D01*
X48007Y205171D01*
X48007Y201229D01*
X46499Y197588D01*
X43712Y194801D01*
X40071Y193293D01*
X36129Y193293D01*
G37*
%LPD*%
%LPC*%
G36*
X115315Y383539D02*
X115315Y383539D01*
X115355Y383796D01*
X115936Y385583D01*
X116789Y387257D01*
X117894Y388778D01*
X119222Y390106D01*
X120743Y391211D01*
X122417Y392064D01*
X124204Y392645D01*
X124461Y392685D01*
X124461Y383539D01*
X115315Y383539D01*
G37*
%LPD*%
%LPC*%
G36*
X124204Y369355D02*
X124204Y369355D01*
X122417Y369936D01*
X120743Y370789D01*
X119222Y371894D01*
X117894Y373222D01*
X116789Y374743D01*
X115936Y376417D01*
X115355Y378204D01*
X115315Y378461D01*
X124461Y378461D01*
X124461Y369315D01*
X124204Y369355D01*
G37*
%LPD*%
%LPC*%
G36*
X193039Y281939D02*
X193039Y281939D01*
X193039Y290057D01*
X193058Y290054D01*
X194693Y289522D01*
X196225Y288742D01*
X197616Y287731D01*
X198831Y286516D01*
X199842Y285125D01*
X200622Y283593D01*
X201154Y281958D01*
X201157Y281939D01*
X193039Y281939D01*
G37*
%LPD*%
%LPC*%
G36*
X40639Y231139D02*
X40639Y231139D01*
X40639Y239257D01*
X40658Y239254D01*
X42293Y238722D01*
X43825Y237942D01*
X45216Y236931D01*
X46431Y235716D01*
X47442Y234325D01*
X48222Y232793D01*
X48754Y231158D01*
X48757Y231139D01*
X40639Y231139D01*
G37*
%LPD*%
%LPC*%
G36*
X40639Y256539D02*
X40639Y256539D01*
X40639Y264657D01*
X40658Y264654D01*
X42293Y264122D01*
X43825Y263342D01*
X45216Y262331D01*
X46431Y261116D01*
X47442Y259725D01*
X48222Y258193D01*
X48754Y256558D01*
X48757Y256539D01*
X40639Y256539D01*
G37*
%LPD*%
%LPC*%
G36*
X40639Y251461D02*
X40639Y251461D01*
X48757Y251461D01*
X48754Y251442D01*
X48222Y249807D01*
X47442Y248275D01*
X46431Y246884D01*
X45216Y245669D01*
X43825Y244658D01*
X42293Y243878D01*
X40658Y243346D01*
X40639Y243343D01*
X40639Y251461D01*
G37*
%LPD*%
%LPC*%
G36*
X40639Y226061D02*
X40639Y226061D01*
X48757Y226061D01*
X48754Y226042D01*
X48222Y224407D01*
X47442Y222875D01*
X46431Y221484D01*
X45216Y220269D01*
X43825Y219258D01*
X42293Y218478D01*
X40658Y217946D01*
X40639Y217943D01*
X40639Y226061D01*
G37*
%LPD*%
%LPC*%
G36*
X193039Y276861D02*
X193039Y276861D01*
X201157Y276861D01*
X201154Y276842D01*
X200622Y275207D01*
X199842Y273675D01*
X198831Y272284D01*
X197616Y271069D01*
X196225Y270058D01*
X194693Y269278D01*
X193058Y268746D01*
X193039Y268743D01*
X193039Y276861D01*
G37*
%LPD*%
%LPC*%
G36*
X27443Y256539D02*
X27443Y256539D01*
X27446Y256558D01*
X27978Y258193D01*
X28758Y259725D01*
X29769Y261116D01*
X30984Y262331D01*
X32375Y263342D01*
X33907Y264122D01*
X35542Y264654D01*
X35561Y264657D01*
X35561Y256539D01*
X27443Y256539D01*
G37*
%LPD*%
%LPC*%
G36*
X179843Y281939D02*
X179843Y281939D01*
X179846Y281958D01*
X180378Y283593D01*
X181158Y285125D01*
X182169Y286516D01*
X183384Y287731D01*
X184775Y288742D01*
X186307Y289522D01*
X187942Y290054D01*
X187961Y290057D01*
X187961Y281939D01*
X179843Y281939D01*
G37*
%LPD*%
%LPC*%
G36*
X27443Y231139D02*
X27443Y231139D01*
X27446Y231158D01*
X27978Y232793D01*
X28758Y234325D01*
X29769Y235716D01*
X30984Y236931D01*
X32375Y237942D01*
X33907Y238722D01*
X35542Y239254D01*
X35561Y239257D01*
X35561Y231139D01*
X27443Y231139D01*
G37*
%LPD*%
%LPC*%
G36*
X187942Y268746D02*
X187942Y268746D01*
X186307Y269278D01*
X184775Y270058D01*
X183384Y271069D01*
X182169Y272284D01*
X181158Y273675D01*
X180378Y275207D01*
X179846Y276842D01*
X179843Y276861D01*
X187961Y276861D01*
X187961Y268743D01*
X187942Y268746D01*
G37*
%LPD*%
%LPC*%
G36*
X35542Y243346D02*
X35542Y243346D01*
X33907Y243878D01*
X32375Y244658D01*
X30984Y245669D01*
X29769Y246884D01*
X28758Y248275D01*
X27978Y249807D01*
X27446Y251442D01*
X27443Y251461D01*
X35561Y251461D01*
X35561Y243343D01*
X35542Y243346D01*
G37*
%LPD*%
%LPC*%
G36*
X35542Y217946D02*
X35542Y217946D01*
X33907Y218478D01*
X32375Y219258D01*
X30984Y220269D01*
X29769Y221484D01*
X28758Y222875D01*
X27978Y224407D01*
X27446Y226042D01*
X27443Y226061D01*
X35561Y226061D01*
X35561Y217943D01*
X35542Y217946D01*
G37*
%LPD*%
D10*
X38100Y304800D03*
D11*
X38100Y279400D03*
X38100Y254000D03*
X38100Y228600D03*
X38100Y203200D03*
X38100Y177800D03*
X38100Y152400D03*
X38100Y127000D03*
X38100Y101600D03*
X38100Y76200D03*
X38100Y50800D03*
X38100Y25400D03*
X190500Y25400D03*
X190500Y50800D03*
X190500Y76200D03*
X190500Y101600D03*
X190500Y127000D03*
X190500Y152400D03*
X190500Y177800D03*
X190500Y203200D03*
X190500Y228600D03*
X190500Y254000D03*
X190500Y279400D03*
X190500Y304800D03*
D12*
X152400Y381000D03*
X127000Y381000D03*
X12700Y25400D03*
X12700Y50800D03*
X12700Y76200D03*
X12700Y101600D03*
X12700Y127000D03*
X12700Y152400D03*
X12700Y177800D03*
X12700Y203200D03*
X12700Y228600D03*
X12700Y254000D03*
X12700Y279400D03*
X12700Y304800D03*
X12700Y330200D03*
X12700Y355600D03*
X12700Y381000D03*
X12700Y406400D03*
X215900Y25400D03*
X215900Y50800D03*
X215900Y76200D03*
X215900Y101600D03*
X215900Y127000D03*
X215900Y152400D03*
X215900Y177800D03*
X215900Y203200D03*
X215900Y228600D03*
X215900Y254000D03*
X215900Y279400D03*
X215900Y304800D03*
M02*
