G04 EAGLE Gerber RS-274X export*
G75*
%MOMM*%
%FSLAX34Y34*%
%LPD*%
%INTop Copper*%
%IPPOS*%
%AMOC8*
5,1,8,0,0,1.08239X$1,22.5*%
G01*
%ADD10R,1.676400X1.676400*%
%ADD11C,1.676400*%
%ADD12C,1.879600*%
%ADD13C,0.304800*%


D10*
X38100Y304800D03*
D11*
X38100Y279400D03*
X38100Y254000D03*
X38100Y228600D03*
X38100Y203200D03*
X38100Y177800D03*
X38100Y152400D03*
X38100Y127000D03*
X38100Y101600D03*
X38100Y76200D03*
X38100Y50800D03*
X38100Y25400D03*
X190500Y25400D03*
X190500Y50800D03*
X190500Y76200D03*
X190500Y101600D03*
X190500Y127000D03*
X190500Y152400D03*
X190500Y177800D03*
X190500Y203200D03*
X190500Y228600D03*
X190500Y254000D03*
X190500Y279400D03*
X190500Y304800D03*
D12*
X152400Y381000D03*
X127000Y381000D03*
X12700Y25400D03*
X12700Y50800D03*
X12700Y76200D03*
X12700Y101600D03*
X12700Y127000D03*
X12700Y152400D03*
X12700Y177800D03*
X12700Y203200D03*
X12700Y228600D03*
X12700Y254000D03*
X12700Y279400D03*
X12700Y304800D03*
X12700Y330200D03*
X12700Y355600D03*
X12700Y381000D03*
X12700Y406400D03*
X215900Y25400D03*
X215900Y50800D03*
X215900Y76200D03*
X215900Y101600D03*
X215900Y127000D03*
X215900Y152400D03*
X215900Y177800D03*
X215900Y203200D03*
X215900Y228600D03*
X215900Y254000D03*
X215900Y279400D03*
X215900Y304800D03*
D13*
X215900Y101600D02*
X190500Y101600D01*
X12700Y271601D02*
X12700Y279400D01*
X25146Y216154D02*
X38100Y203200D01*
X25146Y259155D02*
X12700Y271601D01*
X25146Y259155D02*
X25146Y216154D01*
X12700Y177800D02*
X38100Y177800D01*
X38100Y152400D02*
X12700Y152400D01*
X12700Y127000D02*
X38100Y127000D01*
X190500Y152400D02*
X215900Y152400D01*
X215900Y127000D02*
X190500Y127000D01*
X190500Y177800D02*
X215900Y177800D01*
X38100Y76200D02*
X12700Y76200D01*
X190500Y203200D02*
X215900Y203200D01*
X38100Y25400D02*
X12700Y25400D01*
X12700Y50800D02*
X38100Y50800D01*
X38100Y101600D02*
X12700Y101600D01*
X190500Y228600D02*
X38100Y381000D01*
X12700Y381000D01*
X12700Y304800D02*
X38100Y304800D01*
X215900Y287199D02*
X215900Y279400D01*
X215900Y287199D02*
X203454Y299645D01*
X203454Y317246D01*
X152400Y368300D02*
X152400Y381000D01*
X152400Y368300D02*
X203454Y317246D01*
M02*
