G04 EAGLE Gerber RS-274X export*
G75*
%MOMM*%
%FSLAX34Y34*%
%LPD*%
%INSoldermask Bottom*%
%IPPOS*%
%AMOC8*
5,1,8,0,0,1.08239X$1,22.5*%
G01*
%ADD10R,1.879600X1.879600*%
%ADD11C,1.879600*%
%ADD12C,2.082800*%


D10*
X38100Y304800D03*
D11*
X38100Y279400D03*
X38100Y254000D03*
X38100Y228600D03*
X38100Y203200D03*
X38100Y177800D03*
X38100Y152400D03*
X38100Y127000D03*
X38100Y101600D03*
X38100Y76200D03*
X38100Y50800D03*
X38100Y25400D03*
X190500Y25400D03*
X190500Y50800D03*
X190500Y76200D03*
X190500Y101600D03*
X190500Y127000D03*
X190500Y152400D03*
X190500Y177800D03*
X190500Y203200D03*
X190500Y228600D03*
X190500Y254000D03*
X190500Y279400D03*
X190500Y304800D03*
D12*
X152400Y381000D03*
X127000Y381000D03*
X12700Y25400D03*
X12700Y50800D03*
X12700Y76200D03*
X12700Y101600D03*
X12700Y127000D03*
X12700Y152400D03*
X12700Y177800D03*
X12700Y203200D03*
X12700Y228600D03*
X12700Y254000D03*
X12700Y279400D03*
X12700Y304800D03*
X12700Y330200D03*
X12700Y355600D03*
X12700Y381000D03*
X12700Y406400D03*
X215900Y25400D03*
X215900Y50800D03*
X215900Y76200D03*
X215900Y101600D03*
X215900Y127000D03*
X215900Y152400D03*
X215900Y177800D03*
X215900Y203200D03*
X215900Y228600D03*
X215900Y254000D03*
X215900Y279400D03*
X215900Y304800D03*
M02*
