M48
;GenerationSoftware,Autodesk,EAGLE,9.2.2*%
;CreationDate,2019-02-20T10:55:48Z*%
FMAT,2
ICI,OFF
METRIC,TZ,000.000
T1C1.016
%
G90
M71
T1
X3810Y30480
X3810Y27940
X3810Y25400
X3810Y22860
X3810Y20320
X3810Y17780
X3810Y15240
X3810Y12700
X3810Y10160
X3810Y7620
X3810Y5080
X3810Y2540
X19050Y2540
X19050Y5080
X19050Y7620
X19050Y10160
X19050Y12700
X19050Y15240
X19050Y17780
X19050Y20320
X19050Y22860
X19050Y25400
X19050Y27940
X19050Y30480
X15240Y38100
X12700Y38100
X1270Y2540
X1270Y5080
X1270Y7620
X1270Y10160
X1270Y12700
X1270Y15240
X1270Y17780
X1270Y20320
X1270Y22860
X1270Y25400
X1270Y27940
X1270Y30480
X1270Y33020
X1270Y35560
X1270Y38100
X1270Y40640
X21590Y2540
X21590Y5080
X21590Y7620
X21590Y10160
X21590Y12700
X21590Y15240
X21590Y17780
X21590Y20320
X21590Y22860
X21590Y25400
X21590Y27940
X21590Y30480
M30